<svg xmlns="http://www.w3.org/2000/svg" version="1.1" xmlns:xlink="http://www.w3.org/1999/xlink" xmlns:svgjs="http://svgjs.dev/svgjs" viewBox="0 0 800 800" opacity="1"><defs><linearGradient x1="50%" y1="0%" x2="50%" y2="100%" id="cccoil-grad"><stop stop-color="hsl(265, 55%, 30%)" stop-opacity="1" offset="0%"></stop><stop stop-color="hsl(265, 55%, 60%)" stop-opacity="1" offset="100%"></stop></linearGradient></defs><g stroke="url(#cccoil-grad)" fill="none" stroke-linecap="round"><circle r="336" cx="400" cy="400" stroke-width="7" stroke-dasharray="1984 2111" transform="rotate(360, 400, 400)" opacity="0.05"></circle><circle r="322" cx="400" cy="400" stroke-width="7" stroke-dasharray="1819 2023" transform="rotate(344, 400, 400)" opacity="0.09"></circle><circle r="308" cx="400" cy="400" stroke-width="7" stroke-dasharray="1661 1935" transform="rotate(329, 400, 400)" opacity="0.13"></circle><circle r="294" cx="400" cy="400" stroke-width="7" stroke-dasharray="1510 1847" transform="rotate(313, 400, 400)" opacity="0.17"></circle><circle r="280" cx="400" cy="400" stroke-width="7" stroke-dasharray="1366 1759" transform="rotate(297, 400, 400)" opacity="0.22"></circle><circle r="266" cx="400" cy="400" stroke-width="7" stroke-dasharray="1230 1671" transform="rotate(282, 400, 400)" opacity="0.26"></circle><circle r="252" cx="400" cy="400" stroke-width="7" stroke-dasharray="1100 1583" transform="rotate(266, 400, 400)" opacity="0.30"></circle><circle r="238" cx="400" cy="400" stroke-width="7" stroke-dasharray="978 1495" transform="rotate(250, 400, 400)" opacity="0.34"></circle><circle r="224" cx="400" cy="400" stroke-width="7" stroke-dasharray="863 1407" transform="rotate(235, 400, 400)" opacity="0.38"></circle><circle r="210" cx="400" cy="400" stroke-width="7" stroke-dasharray="755 1319" transform="rotate(219, 400, 400)" opacity="0.42"></circle><circle r="196" cx="400" cy="400" stroke-width="7" stroke-dasharray="654 1232" transform="rotate(203, 400, 400)" opacity="0.46"></circle><circle r="182" cx="400" cy="400" stroke-width="7" stroke-dasharray="561 1144" transform="rotate(188, 400, 400)" opacity="0.50"></circle><circle r="168" cx="400" cy="400" stroke-width="7" stroke-dasharray="475 1056" transform="rotate(172, 400, 400)" opacity="0.55"></circle><circle r="154" cx="400" cy="400" stroke-width="7" stroke-dasharray="395 968" transform="rotate(157, 400, 400)" opacity="0.59"></circle><circle r="140" cx="400" cy="400" stroke-width="7" stroke-dasharray="324 880" transform="rotate(141, 400, 400)" opacity="0.63"></circle><circle r="126" cx="400" cy="400" stroke-width="7" stroke-dasharray="259 792" transform="rotate(125, 400, 400)" opacity="0.67"></circle><circle r="112" cx="400" cy="400" stroke-width="7" stroke-dasharray="201 704" transform="rotate(110, 400, 400)" opacity="0.71"></circle><circle r="98" cx="400" cy="400" stroke-width="7" stroke-dasharray="151 616" transform="rotate(94, 400, 400)" opacity="0.75"></circle><circle r="84" cx="400" cy="400" stroke-width="7" stroke-dasharray="108 528" transform="rotate(78, 400, 400)" opacity="0.79"></circle><circle r="70" cx="400" cy="400" stroke-width="7" stroke-dasharray="72 440" transform="rotate(63, 400, 400)" opacity="0.83"></circle><circle r="56" cx="400" cy="400" stroke-width="7" stroke-dasharray="43 352" transform="rotate(47, 400, 400)" opacity="0.88"></circle><circle r="42" cx="400" cy="400" stroke-width="7" stroke-dasharray="22 264" transform="rotate(31, 400, 400)" opacity="0.92"></circle><circle r="28" cx="400" cy="400" stroke-width="7" stroke-dasharray="7 176" transform="rotate(16, 400, 400)" opacity="0.96"></circle><circle r="14" cx="400" cy="400" stroke-width="7" stroke-dasharray="0 88" opacity="1.00"></circle></g></svg>