<?xml version="1.0" encoding="utf-8"?>
<!-- Generator: Adobe Illustrator 27.5.0, SVG Export Plug-In . SVG Version: 6.00 Build 0)  -->
<svg version="1.1" xmlns="http://www.w3.org/2000/svg" xmlns:xlink="http://www.w3.org/1999/xlink" x="0px" y="0px"
	 viewBox="0 0 500 500" style="enable-background:new 0 0 500 500;" xml:space="preserve">
<g id="BACKGROUND">
	<rect y="0" style="fill:#FDFFFF;" width="500" height="500"/>
</g>
<g id="OBJECTS">
	<g>
		<path style="fill:#E3EEFF;" d="M432.975,253.758c-14.36,18.32-38.19,27.89-60.86,29.68c-21.9,1.73-46.92-2.06-65.51,12.29
			c-8.32,6.43-14.41,15.22-21.11,23.21c-6.73,8.02-14.3,15.24-24.09,19.35c-19.24,8.07-42.21,4.11-59.31-7.18
			c-17.93-11.82-28.82-31.79-47.25-42.96c-17.64-10.69-39.14-9.83-58.99-11c-19.36-1.13-40.33-4.71-52.67-21.33
			c-6.05-8.16-9.33-18.49-9.02-28.65c0.33-11.05,5.27-20.54,10.42-30.04c5.27-9.71,9.93-19.53,8.42-30.88
			c-1.51-11.29-7.31-21.5-11.11-32.1c-3.68-10.27-5.02-20.87-2.53-31.58c2.4-10.38,7.74-20.06,15.02-27.82
			c15.51-16.56,38.93-23.42,61.13-22.87c11.48,0.29,23.03,2.79,34.52,1.26c5.61-0.75,10.91-2.71,15.4-6.21
			c4.26-3.32,7.63-7.59,11.21-11.59c3.55-3.98,7.38-7.71,12.02-10.4c4.46-2.58,9.31-4.28,14.37-5.22
			c10.31-1.91,21.21-0.44,30.9,3.44c21.55,8.65,35.69,27.74,48.66,46.02c4.42,6.22,9.11,12.63,14.76,17.9
			c3.9,1.5,8.05,2.41,12.45,2.64c11.08,0.58,22.09-2.29,32.88-4.42c10.65-2.11,21.74-3.83,32.51-1.54
			c9.5,2.02,17.9,7.42,24.24,14.69c6.27,7.18,10.42,16.3,11.48,25.78c0.58,5.19,0.08,10.37-1.13,15.43
			c-1.44,6.04-3.66,11.89-4.83,18c-1.01,5.25-1,10.56,0.88,15.61c1.43,3.85,3.74,7.28,6.34,10.42c5.5,6.62,12.33,11.98,18.23,18.21
			c6.03,6.37,11.17,13.73,12.27,22.65C443.985,235.158,439.405,245.558,432.975,253.758z"/>
		<g>
			<g>
				<path style="fill:#B2B0F7;" d="M300.27,175.732c0.705,1.724,1.979,3.186,3.566,4.248c0.319,0.221,0.649,0.409,0.981,0.585
					c0.172,0.166,0.344,0.332,0.523,0.492c0.196,0.183,0.425,0.141,0.585,0.009c5.277,2.079,11.334-0.427,15.826-3.527
					c4.916-3.383,8.984-8.006,11.75-13.279c2.724-5.171,4.218-11.07,3.793-16.933c-0.108-1.464-0.337-2.932-0.679-4.362
					c-0.399-1.647-1.003-3.222-1.529-4.834c-0.542-1.681-0.99-3.409-0.917-5.198c0.069-1.526,0.523-3.012,1.228-4.367
					c2.992-5.82,9.27-8.834,13.193-13.902c1.867-2.416,3.094-5.26,3.029-8.349c-0.069-2.685-1.068-5.226-2.333-7.556
					c-2.7-4.933-6.872-9.233-8.399-14.741c-0.741-2.7-0.559-5.443,0.406-8.055c0.971-2.651,2.545-5.048,4.042-7.423
					c1.473-2.344,2.936-4.717,3.829-7.345c0.978-2.893,0.994-5.937,0.019-8.838c-1.092-3.215-3.118-6.024-5.315-8.574
					c-2.43-2.812-5.15-5.383-8.209-7.51c-5.56-3.871-12.346-6.139-19.158-5.296c-6.249,0.774-11.955,4.315-14.891,9.975
					c-1.448,2.786-2.079,5.937-1.694,9.058c0.454,3.764,2.12,7.256,4.112,10.444c3.786,6.065,9.056,11.64,10.172,18.989
					c0.492,3.217-0.02,6.432-1.759,9.224c-1.921,3.082-4.862,5.372-7.537,7.781c-2.273,2.048-4.468,4.357-5.79,7.154
					c-1.389,2.942-1.445,6.122-0.145,9.11c1.347,3.083,3.591,5.68,5.506,8.419c1.843,2.628,3.585,5.389,4.798,8.372
					c1.152,2.839,1.818,5.926,1.408,8.994c-0.463,3.438-2.216,6.477-4.27,9.21c-3.791,5.04-9.047,9.776-10.024,16.348
					C295.733,168.556,297.599,172.393,300.27,175.732z"/>
				<path style="fill:#837AF9;" d="M304.857,154.4c3.553-3.523,8.618-5.97,10.253-11.027c1.765-5.46-0.957-11.387-3.805-15.962
					c-1.546-2.484-3.377-4.807-4.558-7.502c-1.074-2.452-1.466-5.111-0.931-7.749c0.493-2.429,1.67-4.688,3.437-6.433
					c1.677-1.658,3.77-2.81,5.776-4.014c2.018-1.211,4.089-2.534,5.409-4.537c1.597-2.423,1.674-5.455,1.076-8.212
					c-0.642-2.959-2.1-5.647-3.441-8.333c-1.365-2.735-2.536-5.519-3.12-8.533c-0.578-2.983-0.654-6.073-0.209-9.079
					c0.449-3.036,1.58-5.925,1.997-8.965c0.798-5.814-2.386-10.712-6.232-14.753c-0.932-0.98-1.906-1.919-2.896-2.841
					c-0.444-0.413,0.283-1.016,0.723-0.606c3.835,3.573,7.8,7.688,9.098,12.932c0.688,2.78,0.33,5.552-0.347,8.296
					c-0.749,3.039-1.588,5.982-1.678,9.135c-0.09,3.17,0.4,6.375,1.46,9.365c1.032,2.915,2.615,5.586,3.893,8.393
					c2.162,4.746,3.344,10.726-0.51,14.965c-3.226,3.548-8.354,4.725-11.318,8.559c-1.614,2.087-2.478,4.735-2.423,7.372
					c0.062,2.997,1.457,5.699,3.039,8.169c3.03,4.73,6.389,9.466,6.959,15.236c0.253,2.568-0.14,5.156-1.386,7.435
					c-1.176,2.151-3.005,3.836-4.881,5.373c-1.955,1.602-4.045,3.097-5.702,5.024c-1.584,1.842-2.66,4.067-3.148,6.446
					c-0.993,4.838,0.225,9.988,2.741,14.176c0.495,0.824,1.068,1.596,1.674,2.34c0.012-0.715,0.089-1.415,0.225-2.1
					c-0.125-2.103-0.755-4.206-1.01-6.282c-0.332-2.699,0.169-5.237,1.552-7.582c2.747-4.659,7.634-7.339,11.384-11.06
					c1.99-1.974,3.694-4.341,4.236-7.142c0.612-3.167-0.188-6.398-1.261-9.374c-1.934-5.361-5.155-10.857-4.243-16.777
					c0.387-2.513,1.61-4.666,3.435-6.413c1.712-1.639,3.755-2.871,5.64-4.291c1.983-1.493,3.802-3.241,4.611-5.652
					c0.958-2.852,0.509-6.035-0.489-8.813c-2.061-5.739-6.765-10.55-7.569-16.74c-0.341-2.625,0.306-5.098,1.696-7.326
					c1.354-2.172,3.185-3.991,4.806-5.957c1.752-2.124,3.118-4.437,3.729-7.148c0.639-2.835,0.512-5.81-0.179-8.622
					c-1.388-5.652-5.169-10.39-9.536-14.092c-1.057-0.896-2.157-1.738-3.284-2.544c-0.494-0.353,0.05-1.124,0.545-0.77
					c4.57,3.267,8.772,7.276,11.362,12.325c2.534,4.94,3.344,11.017,1.29,16.272c-0.962,2.462-2.59,4.499-4.308,6.473
					c-1.684,1.935-3.515,3.88-4.53,6.272c-2.6,6.126,2.204,12.243,4.964,17.392c2.579,4.811,4.56,11.098,1.164,16.044
					c-2.756,4.014-7.833,5.555-10.687,9.461c-3.677,5.033-1.173,11.657,0.956,16.769c2.298,5.518,4.609,11.7,1.432,17.365
					c-2.669,4.758-7.7,7.439-11.457,11.2c-1.955,1.958-3.731,4.326-4.266,7.099c-0.497,2.581,0.234,5.113,0.686,7.651
					c1.273-3.211,3.739-5.998,6.427-8.15c4.645-3.72,10.285-6.299,14.043-11.05c1.754-2.218,2.991-4.826,3.122-7.683
					c0.15-3.258-0.988-6.42-1.97-9.474c-1.025-3.187-1.861-6.427-2.457-9.722c-0.475-2.622-0.755-5.351,0.558-7.783
					c1.904-3.526,5.959-5.207,9.192-7.241c1.7-1.069,3.378-2.308,4.501-4.003c1.661-2.507,1.567-5.553,0.775-8.345
					c-0.863-3.039-2.451-5.825-3.907-8.608c-1.571-3.001-3.282-5.969-4.65-9.07c-1.176-2.664-1.974-5.594-1.253-8.493
					c0.535-2.153,1.861-3.966,3.374-5.542c3.339-3.478,7.758-6.101,9.31-10.928c1.882-5.853-0.443-11.999-3.915-16.744
					c-0.865-1.182-1.805-2.305-2.786-3.392c-0.408-0.452,0.316-1.057,0.723-0.606c3.903,4.323,7.264,9.533,7.554,15.513
					c0.133,2.733-0.381,5.499-1.709,7.908c-1.122,2.036-2.807,3.693-4.518,5.237c-3.558,3.213-7.915,6.546-7.322,11.918
					c0.359,3.258,2.068,6.201,3.561,9.053c1.566,2.992,3.212,5.956,4.672,9.001c1.273,2.656,2.389,5.541,2.379,8.529
					c-0.008,2.411-0.921,4.654-2.552,6.415c-2.808,3.031-6.864,4.401-10.048,6.945c-1.624,1.298-2.946,2.961-3.303,5.059
					c-0.268,1.574-0.032,3.18,0.243,4.736c0.296,1.677,0.653,3.343,1.066,4.995c0.798,3.187,1.98,6.259,2.784,9.441
					c0.736,2.913,0.952,5.932-0.048,8.81c-3.992,11.492-19.798,12.95-23.35,24.659c-0.085,0.281-0.152,0.567-0.215,0.853
					c0.057,0.99-0.004,1.972-0.218,2.949c0.008,0.122,0.006,0.244,0.019,0.366c0.059,0.575-0.78,0.751-0.907,0.237
					c-0.091-0.016-0.181-0.063-0.26-0.153c-3.204-3.664-5.217-8.427-5.477-13.299C299.888,162.282,301.452,157.776,304.857,154.4z"
					/>
			</g>
			<g>
				<path style="fill:#B2B0F7;" d="M381.939,139.583c-8.373,5.263-16.278,11.193-24.374,16.851
					c-8.266,5.782-16.78,11.128-25.893,15.507c-9.226,4.44-18.851,8.019-28.635,10.968c-0.382,0.113-0.349,0.612-0.052,0.764
					c0.289,0.155,0.578,0.31,0.866,0.465c-0.114,0.224-0.041,0.524,0.28,0.565c2.232,0.275,4.477,0.535,6.726,0.766
					c9.217,0.966,18.506,1.538,27.822,1.393c9.302-0.156,18.654-1.038,27.814-3.031c9.072-1.979,17.951-5.006,26.227-9.277
					c8.136-4.206,15.706-9.612,21.962-16.249c5.39-5.713,9.96-12.77,10.515-20.566c0.295-4.095-0.804-8.267-4.668-10.312
					c-3.774-1.996-8.308-1.368-12.354-0.218C398.841,129.859,390.121,134.435,381.939,139.583z"/>
				<path style="fill:#837AF9;" d="M306.512,183.583c9.411,0.792,18.872-0.8,28.022-2.893c8.016-1.834,15.893-4.264,23.554-7.25
					c7.611-2.967,15.009-6.478,22.122-10.493c7.162-4.043,14.032-8.6,20.54-13.629c6.462-4.994,12.567-10.451,18.237-16.33
					c0.712-0.738,1.416-1.483,2.114-2.233c0.413-0.444,1.015,0.283,0.606,0.723c-5.629,6.051-11.704,11.682-18.16,16.841
					c-6.437,5.144-13.248,9.821-20.353,13.994c-7.126,4.185-14.552,7.861-22.205,10.982c-7.628,3.112-15.483,5.679-23.481,7.655
					c-8.936,2.208-18.19,3.971-27.43,3.768c-1.218-0.027-2.435-0.093-3.65-0.195C305.825,184.472,305.906,183.532,306.512,183.583z"
					/>
			</g>
			<g>
				<path style="fill:#837AF9;" d="M356.182,99.666c-5.295,9.527-9.754,19.478-14.554,29.257
					c-4.898,9.988-10.286,19.67-16.807,28.694c-6.598,9.143-14.074,17.632-22.06,25.575c-0.312,0.308,0,0.789,0.377,0.788
					c0.372,0.007,0.743,0.013,1.115,0.02c0.014,0.281,0.254,0.543,0.594,0.419c2.355-0.868,4.713-1.757,7.06-2.678
					c9.627-3.752,19.104-7.935,28.205-12.844c9.081-4.913,17.803-10.577,25.711-17.248c7.829-6.612,14.881-14.17,20.637-22.658
					c5.655-8.352,10.079-17.611,12.515-27.423c2.102-8.449,2.641-17.817-1.193-25.868c-2.011-4.231-5.439-7.825-10.396-7.886
					c-4.842-0.058-8.957,2.887-12.299,6.103C367.376,81.334,361.353,90.353,356.182,99.666z"/>
				<path style="fill:#B2B0F7;" d="M306.263,181.494c7.614-5.044,14.89-10.591,21.773-16.593c2.455-2.141,4.842-4.358,7.196-6.61
					c-0.364-0.459-0.342-1.285-0.406-1.802c-0.139-1.115-0.26-2.233-0.363-3.352c-0.206-2.242-0.336-4.49-0.401-6.74
					c-0.017-0.606,0.923-0.518,0.94,0.082c0.059,2.05,0.177,4.097,0.358,6.14c0.089,1.004,0.192,2.006,0.31,3.007
					c0.059,0.5,0.122,1,0.188,1.5c0.022,0.167,0.009,0.348,0.096,0.472c4.001-3.865,7.868-7.868,11.552-12.036
					c0.458-0.518,0.898-1.051,1.35-1.573l-2.312-15.458c-0.09-0.6,0.838-0.772,0.928-0.171c0.732,4.894,1.464,9.788,2.196,14.682
					c4.403-5.149,8.565-10.502,12.466-16.041c-0.791-7.517-1.414-15.052-1.864-22.597c-0.036-0.599,0.892-0.775,0.928-0.171
					c0.429,7.208,1.021,14.406,1.762,21.589c0.44-0.634,0.897-1.257,1.33-1.896c5.137-7.575,9.792-15.48,13.907-23.657
					c0.218-0.433,0.428-0.87,0.643-1.305c-0.073-0.069-0.131-0.152-0.141-0.246c-0.688-6.327-1.375-12.653-2.063-18.98
					c-0.065-0.601,0.862-0.775,0.928-0.171c0.653,6.004,1.305,12.009,1.958,18.013c3.552-7.316,6.681-14.837,9.35-22.519
					c0.367-1.057,0.725-2.116,1.075-3.179c0.19-0.576,1.075-0.248,0.884,0.329c-2.877,8.733-6.338,17.27-10.347,25.545l-0.002,0.005
					c5.377-1.579,10.586-3.693,15.542-6.313c0.538-0.285,0.939,0.57,0.403,0.853c-5.259,2.779-10.801,4.985-16.523,6.604
					c-3.86,7.845-8.189,15.46-12.983,22.772c-1.088,1.66-2.209,3.297-3.343,4.926c8.062-3.327,16.07-6.785,24.016-10.381
					c0.554-0.251,0.957,0.602,0.403,0.853c-8.316,3.762-16.698,7.379-25.14,10.848c-0.071,0.029-0.149,0.037-0.227,0.033
					c-3.811,5.386-7.862,10.603-12.153,15.615c-0.091,0.106-0.187,0.209-0.278,0.315c6.016-0.99,11.956-2.417,17.753-4.309
					c0.571-0.186,0.979,0.665,0.403,0.853c-6.157,2.011-12.46,3.534-18.859,4.539c-0.078,0.012-0.156-0.002-0.231-0.027
					c-3.804,4.367-7.791,8.574-11.931,12.624c3.871-0.332,7.741-0.663,11.612-0.995c0.601-0.051,0.775,0.876,0.171,0.928
					c-2.269,0.194-4.537,0.389-6.806,0.583l-3.52,0.302l-1.643,0.141c-0.274,0.023-0.579,0.077-0.878,0.095
					c-1.635,1.576-3.291,3.129-4.978,4.65c-6.827,6.158-14.057,11.868-21.639,17.068c-0.922,0.632-1.85,1.257-2.783,1.875
					C306.369,182.549,305.757,181.83,306.263,181.494z"/>
			</g>
		</g>
		<g>
			<g>
				<path style="fill:#B2B0F7;" d="M321.08,496.16c-0.61,1.49-1.62,2.8-2.89,3.84h-16.73c-0.83-0.44-1.63-0.92-2.39-1.42
					c-0.26-0.16-0.51-0.33-0.76-0.5c-1.23-0.85-2.4-1.76-3.52-2.75c-3.64-3.18-6.69-7.05-8.93-11.33c-0.91-1.72-1.69-3.52-2.31-5.37
					c-0.23-0.66-0.43-1.33-0.62-2.01c-0.94-3.43-1.35-7-1.09-10.56c0.11-1.56,0.35-3.11,0.72-4.63c0.24-1,0.55-1.98,0.88-2.95
					c0.25-0.72,0.5-1.44,0.74-2.17c0.57-1.78,1.05-3.61,0.97-5.51c-0.07-1.62-0.56-3.19-1.3-4.63c-3.11-6.05-9.56-9.23-13.72-14.41
					c-0.1-0.11-0.19-0.21-0.27-0.32c-1.44-1.87-2.52-3.98-2.98-6.25c0.01-0.01,0.01-0.02,0-0.02c-0.17-0.84-0.25-1.7-0.23-2.58
					c0.08-2.85,1.14-5.54,2.48-8.01c2.86-5.23,7.28-9.79,8.9-15.63c0.78-2.86,0.59-5.77-0.43-8.54c-1.03-2.81-2.7-5.35-4.29-7.86
					c-1.56-2.49-3.11-5-4.05-7.79c-1.04-3.07-1.06-6.29-0.03-9.37c1.16-3.4,3.31-6.38,5.64-9.08c1.96-2.28,4.1-4.4,6.44-6.26v-0.01
					c0.05-0.05,0.11-0.09,0.16-0.13c0.01,0,0.01,0,0.01,0c0.68-0.55,1.38-1.07,2.09-1.57c4.67-3.25,10.15-5.42,15.81-5.74
					c0.49-0.04,0.98-0.05,1.47-0.05c1.01,0,2.02,0.06,3.03,0.18c3.68,0.46,7.19,1.82,10.11,3.97c2.33,1.72,4.29,3.94,5.67,6.6
					c1.53,2.96,2.2,6.3,1.8,9.6c-0.49,3.99-2.25,7.7-4.36,11.07c-3.27,5.22-7.56,10.11-9.69,15.93c-0.49,1.34-0.87,2.74-1.09,4.2
					c-0.53,3.41,0.02,6.82,1.86,9.78c2.04,3.27,5.15,5.69,7.99,8.25c2.41,2.17,4.73,4.61,6.13,7.58c1.48,3.12,1.54,6.49,0.16,9.66
					c-1.43,3.26-3.81,6.02-5.84,8.92c-1.95,2.78-3.8,5.71-5.08,8.87c-1.22,3.01-1.93,6.28-1.49,9.54c0.49,3.64,2.34,6.86,4.52,9.76
					c4.02,5.34,9.59,10.36,10.63,17.33C325.89,488.56,323.91,492.63,321.08,496.16z"/>
				<path style="fill:#837AF9;" d="M321.22,486.96c-0.26,4.71-2.05,9.32-4.95,13.04h-2.18c-0.03-0.14-0.05-0.29-0.06-0.44
					c-0.09-0.7-0.11-1.4-0.07-2.11c-0.06-0.3-0.13-0.61-0.22-0.9c-2.3-7.59-9.45-11.12-15.63-15.5c-3.93-2.77-7.47-5.9-9.12-10.64
					c-0.41-1.19-0.63-2.39-0.7-3.61c-0.1-1.91,0.17-3.84,0.65-5.73c0.85-3.37,2.1-6.63,2.95-10.01c0.44-1.75,0.81-3.51,1.13-5.29
					c0.29-1.65,0.54-3.35,0.25-5.02c-0.37-2.22-1.77-3.99-3.5-5.36c-3.37-2.7-7.67-4.15-10.65-7.36c-1.73-1.87-2.69-4.25-2.7-6.8
					c-0.01-3.17,1.17-6.23,2.52-9.04c1.55-3.23,3.29-6.37,4.95-9.54c1.58-3.03,3.4-6.15,3.78-9.6c0.62-5.69-3.99-9.23-7.76-12.63
					c-1.82-1.64-3.6-3.4-4.79-5.55c-1.41-2.56-1.96-5.49-1.81-8.39c0.3-6.33,3.86-11.85,8-16.43v-0.01
					c0.05-0.05,0.11-0.09,0.16-0.13c0.01,0,0.01,0,0.01,0c0.43-0.19,0.98,0.36,0.6,0.77c-1.04,1.16-2.04,2.35-2.95,3.6
					c-3.68,5.03-6.15,11.54-4.15,17.75c1.64,5.11,6.33,7.89,9.86,11.58c1.61,1.67,3.01,3.59,3.58,5.88c0.77,3.07-0.08,6.17-1.33,9
					c-0.54,1.23-1.14,2.44-1.76,3.64c-1.03,2.01-2.13,3.98-3.17,5.97c-1.54,2.95-3.22,5.9-4.14,9.13c-0.84,2.96-0.94,6.18,0.82,8.84
					c1.19,1.8,2.97,3.11,4.77,4.24c3.43,2.16,7.73,3.94,9.75,7.68c1.39,2.58,1.09,5.47,0.59,8.25c-0.47,2.62-1.09,5.21-1.83,7.76
					c-0.24,0.85-0.5,1.7-0.77,2.54c-1.05,3.24-2.25,6.59-2.09,10.05c0.04,0.77,0.15,1.53,0.32,2.27c0.53,2.14,1.61,4.12,2.99,5.87
					c1.02,1.29,2.17,2.43,3.4,3.47c3.57,3.05,7.82,5.31,11.48,8.24c2.85,2.28,5.46,5.24,6.81,8.64c0.48-2.69,1.26-5.37,0.73-8.11
					c-0.57-2.94-2.45-5.45-4.52-7.52c-3.98-3.99-9.32-6.83-12.15-11.87c-2.27-4.06-1.89-8.37-0.65-12.53
					c0.59-2.01,1.38-3.98,2.17-5.88c2.26-5.42,4.91-12.44,1.02-17.78c-3.03-4.14-8.41-5.77-11.33-10.02
					c-3.6-5.25-1.5-11.91,1.23-17.01c2.93-5.46,8.02-11.94,5.26-18.43c-1.07-2.54-3.01-4.6-4.8-6.65c-1.82-2.09-3.54-4.25-4.56-6.86
					c-2.18-5.57-1.32-12.01,1.36-17.25c2.62-5.1,6.78-9.19,11.36-12.57c0.23-0.17,0.46-0.34,0.69-0.5c0.38-0.27,0.79,0.09,0.78,0.45
					c0,0.14-0.06,0.27-0.21,0.37c-1.19,0.86-2.36,1.75-3.48,2.7c-4.62,3.92-8.63,8.94-10.1,14.93c-0.74,2.98-0.87,6.14-0.19,9.14
					c0.64,2.88,2.09,5.33,3.95,7.58c1.72,2.08,3.66,4.01,5.09,6.31c1.48,2.37,2.16,4.99,1.8,7.77c-0.29,2.25-1.07,4.34-2.06,6.34
					c-1.89,3.84-4.53,7.41-5.96,11.4c-1.06,2.95-1.54,6.32-0.52,9.34c0.86,2.56,2.78,4.41,4.89,6c1.99,1.5,4.16,2.81,5.98,4.54
					c1.93,1.85,3.23,4.14,3.64,6.8c0.96,6.28-2.45,12.1-4.5,17.78c-1.14,3.16-1.99,6.58-1.34,9.94c0.58,2.97,2.38,5.48,4.49,7.57
					c3.98,3.94,9.16,6.78,12.07,11.72c1.46,2.49,1.99,5.18,1.64,8.04c-0.27,2.2-0.94,4.43-1.07,6.66c0.15,0.72,0.23,1.47,0.24,2.22
					c0.64-0.79,1.25-1.6,1.78-2.48c2.66-4.44,3.95-9.9,2.9-15.02c-0.52-2.52-1.66-4.88-3.34-6.84c-1.75-2.04-3.97-3.62-6.04-5.32
					c-1.99-1.63-3.93-3.42-5.17-5.7c-1.32-2.41-1.74-5.15-1.47-7.88c0.6-6.11,4.16-11.13,7.37-16.15c1.68-2.61,3.16-5.48,3.23-8.65
					c0.05-2.8-0.86-5.61-2.57-7.82c-3.14-4.06-8.58-5.31-12-9.07c-4.08-4.49-2.83-10.83-0.54-15.86c0.17-0.37,0.34-0.74,0.52-1.11
					c1.24-2.58,2.65-5.09,3.61-7.79c1.12-3.17,1.64-6.57,1.54-9.93c-0.09-3.34-0.98-6.46-1.77-9.68c-0.72-2.91-1.1-5.85-0.37-8.79
					c1.37-5.56,5.58-9.92,9.64-13.71c0.21-0.19,0.47-0.17,0.66-0.05c0.25,0.14,0.37,0.45,0.11,0.69c-1.05,0.98-2.08,1.98-3.07,3.01
					c-4.08,4.29-7.45,9.48-6.61,15.64c0.45,3.22,1.64,6.29,2.12,9.51c0.47,3.18,0.39,6.46-0.22,9.62c-0.23,1.2-0.55,2.36-0.94,3.5
					c-0.64,1.9-1.46,3.73-2.37,5.54c-1.42,2.85-2.97,5.7-3.65,8.84c-0.63,2.92-0.55,6.13,1.14,8.7c1.4,2.12,3.6,3.52,5.74,4.81
					c2.12,1.27,4.34,2.5,6.12,4.25c1.87,1.85,3.12,4.25,3.64,6.82c0.57,2.8,0.15,5.62-0.99,8.22c-1.25,2.85-3.19,5.31-4.83,7.95
					c-3.01,4.85-5.9,11.13-4.03,16.92c1.73,5.36,7.1,7.95,10.87,11.68C319.83,477.13,321.49,481.91,321.22,486.96z"/>
			</g>
			<g>
				<path style="fill:#B2B0F7;" d="M306.68,500h-72.04c-3.94-1.46-7.8-3.15-11.55-5.08c-8.63-4.46-16.65-10.19-23.28-17.23
					c-5.71-6.05-10.56-13.53-11.15-21.8c-0.21-2.88,0.24-5.79,1.75-8.05c0.77-1.16,1.82-2.15,3.2-2.88c4-2.11,8.81-1.45,13.1-0.23
					c9.89,2.81,19.13,7.66,27.81,13.12c3.77,2.37,7.46,4.87,11.1,7.42c4.93,3.45,9.8,6.99,14.73,10.44
					c8.76,6.13,17.79,11.79,27.45,16.44c2.31,1.11,4.64,2.17,6.99,3.18C298.7,497.02,302.67,498.57,306.68,500z"/>
				<path style="fill:#837AF9;" d="M279.01,500h-3.76c-6.29-1.8-12.47-3.95-18.53-6.42c-8.11-3.31-15.98-7.2-23.54-11.64
					c-7.53-4.42-14.75-9.38-21.57-14.83c-6.84-5.47-13.28-11.44-19.25-17.85c-0.28-0.3-0.11-0.73,0.16-0.87
					c0.15-0.08,0.33-0.07,0.49,0.1c0.74,0.8,1.48,1.59,2.24,2.37c6.01,6.23,12.48,12.01,19.33,17.31
					c6.89,5.33,14.18,10.16,21.77,14.44c7.54,4.26,15.38,7.98,23.45,11.12C266.08,496.18,272.5,498.28,279.01,500z"/>
			</g>
			<g>
				<path style="fill:#837AF9;" d="M314.44,500h-11.99c-1.13-0.46-2.26-0.93-3.38-1.42c-6.87-2.92-13.64-6.11-20.22-9.66
					c-9.62-5.21-18.87-11.21-27.25-18.28c-2.05-1.73-4.04-3.52-5.98-5.37c-5.92-5.65-11.3-11.87-15.9-18.65
					c-2.62-3.87-4.99-7.93-7.05-12.14c-2.64-5.41-4.76-11.08-6.21-16.93c-0.81-3.26-1.4-6.64-1.63-10.03
					c-0.4-5.95,0.31-11.95,2.89-17.38c0.8-1.68,1.81-3.27,3.04-4.6c2.05-2.22,4.7-3.72,7.98-3.76c5.13-0.06,9.5,3.06,13.04,6.47
					c0.51,0.49,1.01,0.99,1.51,1.49c7.46,7.57,13.39,16.55,18.53,25.8c1.76,3.17,3.44,6.39,5.06,9.63c0.01,0,0.01,0.01,0,0.02
					c1.11,2.18,2.18,4.37,3.25,6.57c1.95,4.05,3.87,8.11,5.83,12.15c0.42,0.88,0.85,1.76,1.28,2.64c1.98,4.03,4.03,8.01,6.2,11.93
					c1.55,2.81,3.17,5.59,4.85,8.32c0.43,0.69,0.86,1.38,1.29,2.06c1.74,2.75,3.56,5.45,5.48,8.1c0.3,0.42,0.6,0.83,0.91,1.24
					c0.7,0.96,1.41,1.91,2.14,2.85c4.93,6.48,10.28,12.63,15.92,18.51C314.16,499.71,314.3,499.86,314.44,500z"/>
				<path style="fill:#B2B0F7;" d="M311.38,500h-1.75c-7.49-5.22-14.65-10.92-21.43-17.04c-1.57-1.42-3.12-2.86-4.65-4.33
					c-0.21-0.2-0.42-0.4-0.63-0.6c-0.31-0.02-0.64-0.08-0.93-0.1l-1.74-0.15l-3.73-0.32c-2.4-0.2-4.81-0.41-7.21-0.62
					c-0.64-0.05-0.46-1.04,0.18-0.98c4.1,0.35,8.2,0.7,12.31,1.05c-4.39-4.29-8.62-8.75-12.65-13.38c-0.08,0.03-0.16,0.04-0.25,0.03
					c-6.78-1.06-13.46-2.68-19.99-4.81c-0.61-0.2-0.17-1.1,0.43-0.9c6.15,2,12.44,3.51,18.82,4.56c-0.1-0.11-0.2-0.22-0.3-0.33
					c-4.55-5.31-8.84-10.84-12.88-16.55c-0.08,0-0.16-0.01-0.24-0.04c-8.95-3.67-17.83-7.51-26.65-11.49
					c-0.2-0.09-0.28-0.25-0.28-0.42c0-0.33,0.32-0.66,0.71-0.49c8.42,3.81,16.91,7.48,25.46,11c-1.2-1.72-2.39-3.46-3.55-5.22
					c-5.08-7.75-9.67-15.82-13.76-24.13c-6.06-1.72-11.94-4.06-17.51-7.01c-0.19-0.1-0.27-0.27-0.27-0.43c0-0.34,0.32-0.67,0.7-0.47
					c5.25,2.78,10.77,5.02,16.47,6.69c-4.25-8.77-7.92-17.82-10.97-27.08c-0.03-0.1-0.03-0.19-0.02-0.27
					c0.11-0.43,0.79-0.59,0.96-0.08c0.37,1.13,0.75,2.25,1.14,3.37c2.83,8.14,6.14,16.11,9.91,23.87
					c0.69-6.37,1.38-12.73,2.07-19.09c0.03-0.28,0.23-0.4,0.44-0.4c0.29,0,0.59,0.22,0.55,0.58c-0.73,6.7-1.46,13.41-2.19,20.11
					c-0.01,0.1-0.07,0.19-0.15,0.27c0.23,0.46,0.45,0.92,0.68,1.38c4.36,8.66,9.3,17.04,14.74,25.07c0.46,0.68,0.95,1.34,1.41,2.01
					c0.79-7.61,1.42-15.24,1.87-22.88c0.04-0.64,1.02-0.46,0.98,0.18c-0.47,8-1.13,15.98-1.97,23.95c4.13,5.87,8.55,11.55,13.21,17
					c0.78-5.18,1.55-10.37,2.33-15.56c0.08-0.52,0.76-0.49,0.94-0.11c0.04,0.08,0.06,0.18,0.04,0.29l-2.45,16.39
					c0.48,0.55,0.95,1.12,1.43,1.66c3.81,4.3,7.8,8.45,11.92,12.44c0.11,0.11,0.22,0.21,0.33,0.32c0.09-0.13,0.08-0.32,0.1-0.5
					c0.07-0.53,0.14-1.06,0.2-1.59c0.12-1.06,0.23-2.12,0.33-3.18c0.19-2.17,0.31-4.34,0.38-6.51c0.02-0.64,1.01-0.73,0.99-0.09
					c-0.07,2.39-0.2,4.77-0.42,7.14c-0.11,1.19-0.24,2.38-0.39,3.56c-0.07,0.55-0.04,1.42-0.43,1.91c2.5,2.38,5.03,4.74,7.63,7
					C297.93,490.16,304.52,495.28,311.38,500z"/>
			</g>
		</g>
	</g>
	<g>
		<g>
			<path style="fill:#B0E2E0;" d="M314.94,101.04v139.236c0,6.874-5.4,12.499-12,12.499H73.84c-6.6,0-12-5.624-12-12.499V101.04
				H314.94z"/>
			<path style="fill:#4CCCD3;" d="M314.94,95.58v5.46H61.84v-5.46c0-6.6,5.4-12,12-12h229.1C309.54,83.58,314.94,88.98,314.94,95.58
				z"/>
			<path style="fill:#E1FFFE;" d="M92.305,139.193H72.533c-2.648,0-4.795-2.147-4.795-4.795v-17.514
				c0-2.648,2.147-4.795,4.795-4.795h19.772c2.648,0,4.795,2.147,4.795,4.795v17.514C97.101,137.046,94.954,139.193,92.305,139.193z
				"/>
			<path style="fill:#E1FFFE;" d="M127.44,139.193h-19.772c-2.648,0-4.795-2.147-4.795-4.795v-17.514
				c0-2.648,2.147-4.795,4.795-4.795h19.772c2.648,0,4.795,2.147,4.795,4.795v17.514
				C132.236,137.046,130.089,139.193,127.44,139.193z"/>
			<path style="fill:#FFB3B3;" d="M162.836,139.193h-19.772c-2.648,0-4.795-2.147-4.795-4.795v-17.514
				c0-2.648,2.147-4.795,4.795-4.795h19.772c2.648,0,4.795,2.147,4.795,4.795v17.514
				C167.632,137.046,165.485,139.193,162.836,139.193z"/>
			<path style="fill:#E1FFFE;" d="M197.971,139.193h-19.772c-2.648,0-4.795-2.147-4.795-4.795v-17.514
				c0-2.648,2.147-4.795,4.795-4.795h19.772c2.648,0,4.795,2.147,4.795,4.795v17.514
				C202.767,137.046,200.62,139.193,197.971,139.193z"/>
			<path style="fill:#E1FFFE;" d="M232.047,139.193h-19.772c-2.648,0-4.795-2.147-4.795-4.795v-17.514
				c0-2.648,2.147-4.795,4.795-4.795h19.772c2.648,0,4.795,2.147,4.795,4.795v17.514
				C236.842,137.046,234.695,139.193,232.047,139.193z"/>
			<path style="fill:#FFB3B3;" d="M267.182,139.193H247.41c-2.648,0-4.795-2.147-4.795-4.795v-17.514
				c0-2.648,2.147-4.795,4.795-4.795h19.772c2.648,0,4.795,2.147,4.795,4.795v17.514
				C271.977,137.046,269.83,139.193,267.182,139.193z"/>
			<path style="fill:#E1FFFE;" d="M302.578,139.193h-19.772c-2.648,0-4.795-2.147-4.795-4.795v-17.514
				c0-2.648,2.147-4.795,4.795-4.795h19.772c2.648,0,4.795,2.147,4.795,4.795v17.514
				C307.373,137.046,305.226,139.193,302.578,139.193z"/>
			<path style="fill:#E1FFFE;" d="M91.828,173.779H72.056c-2.648,0-4.795-2.147-4.795-4.795V151.47c0-2.648,2.147-4.795,4.795-4.795
				h19.772c2.648,0,4.795,2.147,4.795,4.795v17.514C96.623,171.632,94.476,173.779,91.828,173.779z"/>
			<path style="fill:#E1FFFE;" d="M126.963,173.779h-19.772c-2.648,0-4.795-2.147-4.795-4.795V151.47
				c0-2.648,2.147-4.795,4.795-4.795h19.772c2.648,0,4.795,2.147,4.795,4.795v17.514
				C131.758,171.632,129.611,173.779,126.963,173.779z"/>
			<path style="fill:#E1FFFE;" d="M162.359,173.779h-19.772c-2.648,0-4.795-2.147-4.795-4.795V151.47
				c0-2.648,2.147-4.795,4.795-4.795h19.772c2.648,0,4.795,2.147,4.795,4.795v17.514
				C167.154,171.632,165.007,173.779,162.359,173.779z"/>
			<path style="fill:#E1FFFE;" d="M197.494,173.779h-19.772c-2.648,0-4.795-2.147-4.795-4.795V151.47
				c0-2.648,2.147-4.795,4.795-4.795h19.772c2.648,0,4.795,2.147,4.795,4.795v17.514
				C202.289,171.632,200.142,173.779,197.494,173.779z"/>
			<path style="fill:#E1FFFE;" d="M231.569,173.779h-19.772c-2.648,0-4.795-2.147-4.795-4.795V151.47
				c0-2.648,2.147-4.795,4.795-4.795h19.772c2.648,0,4.795,2.147,4.795,4.795v17.514
				C236.365,171.632,234.218,173.779,231.569,173.779z"/>
			<path style="fill:#E1FFFE;" d="M266.705,173.779h-19.772c-2.648,0-4.795-2.147-4.795-4.795V151.47
				c0-2.648,2.147-4.795,4.795-4.795h19.772c2.648,0,4.795,2.147,4.795,4.795v17.514C271.5,171.632,269.353,173.779,266.705,173.779
				z"/>
			<path style="fill:#E1FFFE;" d="M302.1,173.779h-19.772c-2.648,0-4.795-2.147-4.795-4.795V151.47c0-2.648,2.147-4.795,4.795-4.795
				H302.1c2.648,0,4.795,2.147,4.795,4.795v17.514C306.896,171.632,304.749,173.779,302.1,173.779z"/>
			<path style="fill:#FFB3B3;" d="M92.835,208.365H73.063c-2.648,0-4.795-2.147-4.795-4.795v-17.514
				c0-2.648,2.147-4.795,4.795-4.795h19.772c2.648,0,4.795,2.147,4.795,4.795v17.514C97.63,206.218,95.484,208.365,92.835,208.365z"
				/>
			<path style="fill:#E1FFFE;" d="M127.97,208.365h-19.772c-2.648,0-4.795-2.147-4.795-4.795v-17.514
				c0-2.648,2.147-4.795,4.795-4.795h19.772c2.648,0,4.795,2.147,4.795,4.795v17.514
				C132.766,206.218,130.619,208.365,127.97,208.365z"/>
			<path style="fill:#FFB3B3;" d="M163.366,208.365h-19.772c-2.648,0-4.795-2.147-4.795-4.795v-17.514
				c0-2.648,2.147-4.795,4.795-4.795h19.772c2.648,0,4.795,2.147,4.795,4.795v17.514
				C168.161,206.218,166.014,208.365,163.366,208.365z"/>
			<path style="fill:#E1FFFE;" d="M198.501,208.365h-19.772c-2.648,0-4.795-2.147-4.795-4.795v-17.514
				c0-2.648,2.147-4.795,4.795-4.795h19.772c2.648,0,4.795,2.147,4.795,4.795v17.514
				C203.297,206.218,201.15,208.365,198.501,208.365z"/>
			<path style="fill:#E1FFFE;" d="M232.577,208.365h-19.772c-2.648,0-4.795-2.147-4.795-4.795v-17.514
				c0-2.648,2.147-4.795,4.795-4.795h19.772c2.648,0,4.795,2.147,4.795,4.795v17.514
				C237.372,206.218,235.225,208.365,232.577,208.365z"/>
			<path style="fill:#E1FFFE;" d="M267.712,208.365H247.94c-2.648,0-4.795-2.147-4.795-4.795v-17.514
				c0-2.648,2.147-4.795,4.795-4.795h19.772c2.648,0,4.795,2.147,4.795,4.795v17.514
				C272.507,206.218,270.36,208.365,267.712,208.365z"/>
			<path style="fill:#E1FFFE;" d="M303.108,208.365h-19.772c-2.648,0-4.795-2.147-4.795-4.795v-17.514
				c0-2.648,2.147-4.795,4.795-4.795h19.772c2.648,0,4.795,2.147,4.795,4.795v17.514
				C307.903,206.218,305.756,208.365,303.108,208.365z"/>
			<path style="fill:#E1FFFE;" d="M92.835,242.952H73.063c-2.648,0-4.795-2.147-4.795-4.795v-17.514
				c0-2.648,2.147-4.795,4.795-4.795h19.772c2.648,0,4.795,2.147,4.795,4.795v17.514C97.63,240.805,95.484,242.952,92.835,242.952z"
				/>
			<path style="fill:#E1FFFE;" d="M127.97,242.952h-19.772c-2.648,0-4.795-2.147-4.795-4.795v-17.514
				c0-2.648,2.147-4.795,4.795-4.795h19.772c2.648,0,4.795,2.147,4.795,4.795v17.514
				C132.766,240.805,130.619,242.952,127.97,242.952z"/>
			<path style="fill:#E1FFFE;" d="M163.366,242.952h-19.772c-2.648,0-4.795-2.147-4.795-4.795v-17.514
				c0-2.648,2.147-4.795,4.795-4.795h19.772c2.648,0,4.795,2.147,4.795,4.795v17.514
				C168.161,240.805,166.014,242.952,163.366,242.952z"/>
			<path style="fill:#E1FFFE;" d="M198.501,242.952h-19.772c-2.648,0-4.795-2.147-4.795-4.795v-17.514
				c0-2.648,2.147-4.795,4.795-4.795h19.772c2.648,0,4.795,2.147,4.795,4.795v17.514
				C203.297,240.805,201.15,242.952,198.501,242.952z"/>
			<path style="fill:#E1FFFE;" d="M232.577,242.952h-19.772c-2.648,0-4.795-2.147-4.795-4.795v-17.514
				c0-2.648,2.147-4.795,4.795-4.795h19.772c2.648,0,4.795,2.147,4.795,4.795v17.514
				C237.372,240.805,235.225,242.952,232.577,242.952z"/>
			<circle style="fill:#837AF9;" cx="294.799" cy="92.282" r="4.309"/>
			<circle style="fill:#FFB3B3;" cx="278.01" cy="92.31" r="4.309"/>
			<circle style="fill:#FDFFFF;" cx="260.282" cy="92.31" r="4.309"/>
			<g>
				<path style="fill:#837AF9;" d="M124.44,136.693h-19.772c-2.92,0-5.295-2.375-5.295-5.295v-17.513
					c0-2.92,2.375-5.295,5.295-5.295h19.772c2.92,0,5.295,2.375,5.295,5.295v17.513C129.736,134.317,127.36,136.693,124.44,136.693z
					 M104.668,109.589c-2.369,0-4.295,1.927-4.295,4.295v17.513c0,2.369,1.927,4.295,4.295,4.295h19.772
					c2.369,0,4.295-1.927,4.295-4.295v-17.513c0-2.369-1.927-4.295-4.295-4.295H104.668z"/>
			</g>
			<g>
				<path style="fill:#837AF9;" d="M299.578,136.693h-19.772c-2.92,0-5.296-2.375-5.296-5.295v-17.513
					c0-2.92,2.376-5.295,5.296-5.295h19.772c2.92,0,5.295,2.375,5.295,5.295v17.513
					C304.873,134.317,302.498,136.693,299.578,136.693z M279.806,109.589c-2.369,0-4.296,1.927-4.296,4.295v17.513
					c0,2.369,1.927,4.295,4.296,4.295h19.772c2.368,0,4.295-1.927,4.295-4.295v-17.513c0-2.369-1.927-4.295-4.295-4.295H279.806z"/>
			</g>
			<g>
				<path style="fill:#837AF9;" d="M159.359,171.279h-19.772c-2.92,0-5.295-2.375-5.295-5.295V148.47
					c0-2.92,2.375-5.295,5.295-5.295h19.772c2.92,0,5.295,2.375,5.295,5.295v17.514
					C164.654,168.904,162.279,171.279,159.359,171.279z M139.586,144.175c-2.369,0-4.295,1.927-4.295,4.295v17.514
					c0,2.369,1.927,4.295,4.295,4.295h19.772c2.369,0,4.295-1.927,4.295-4.295V148.47c0-2.369-1.927-4.295-4.295-4.295H139.586z"/>
			</g>
			<g>
				<path style="fill:#837AF9;" d="M228.569,171.279h-19.772c-2.92,0-5.295-2.375-5.295-5.295V148.47
					c0-2.92,2.375-5.295,5.295-5.295h19.772c2.92,0,5.295,2.375,5.295,5.295v17.514
					C233.865,168.904,231.489,171.279,228.569,171.279z M208.797,144.175c-2.369,0-4.295,1.927-4.295,4.295v17.514
					c0,2.369,1.927,4.295,4.295,4.295h19.772c2.369,0,4.295-1.927,4.295-4.295V148.47c0-2.369-1.927-4.295-4.295-4.295H208.797z"/>
			</g>
			<g>
				<path style="fill:#837AF9;" d="M124.97,240.452h-19.772c-2.92,0-5.295-2.375-5.295-5.295v-17.514
					c0-2.92,2.375-5.295,5.295-5.295h19.772c2.92,0,5.295,2.375,5.295,5.295v17.514C130.266,238.076,127.89,240.452,124.97,240.452z
					 M105.198,213.347c-2.369,0-4.295,1.927-4.295,4.295v17.514c0,2.369,1.927,4.295,4.295,4.295h19.772
					c2.369,0,4.295-1.927,4.295-4.295v-17.514c0-2.369-1.927-4.295-4.295-4.295H105.198z"/>
			</g>
			<g>
				<polygon style="fill:#837AF9;" points="256.973,204.611 246.126,193.553 249.696,190.052 256.664,197.156 266.745,185.016 
					270.592,188.21 				"/>
			</g>
			<g>
				<polygon style="fill:#837AF9;" points="115.69,169.337 104.844,158.278 108.414,154.777 115.382,161.881 125.463,149.742 
					129.31,152.936 				"/>
			</g>
			<g>
				<polygon style="fill:#837AF9;" points="154.012,239.197 143.166,228.139 146.736,224.638 153.704,231.742 163.785,219.602 
					167.632,222.796 				"/>
			</g>
		</g>
		<g>
			<g>
				<path d="M215.749,247.918c-0.135,0-0.271-0.055-0.369-0.163c-0.186-0.204-0.172-0.52,0.032-0.707
					c1.207-1.103,2.365-2.294,3.441-3.542c0.18-0.21,0.497-0.233,0.705-0.052c0.209,0.18,0.232,0.496,0.052,0.705
					c-1.102,1.277-2.287,2.497-3.523,3.626C215.99,247.875,215.869,247.918,215.749,247.918z M222.271,240.368
					c-0.097,0-0.194-0.028-0.28-0.086c-0.229-0.155-0.288-0.466-0.133-0.694c0.921-1.358,1.773-2.785,2.533-4.241
					c0.128-0.245,0.428-0.341,0.675-0.212c0.245,0.128,0.339,0.43,0.212,0.675c-0.777,1.489-1.649,2.949-2.592,4.339
					C222.588,240.292,222.431,240.368,222.271,240.368z M226.882,231.52c-0.059,0-0.12-0.01-0.178-0.033
					c-0.258-0.099-0.387-0.387-0.289-0.646c0.374-0.98,0.714-1.986,1.012-2.99c0.167-0.563,0.32-1.135,0.456-1.716
					c0.063-0.269,0.33-0.437,0.601-0.373c0.269,0.063,0.436,0.332,0.373,0.601c-0.14,0.599-0.298,1.191-0.47,1.772
					c-0.305,1.028-0.653,2.058-1.036,3.062C227.273,231.397,227.083,231.52,226.882,231.52z M229.01,221.801
					c-0.002,0-0.005,0-0.007,0c-0.276-0.004-0.497-0.231-0.493-0.507l0.001-0.188c0-1.673-0.245-3.204-0.727-4.553
					c-0.093-0.26,0.042-0.546,0.302-0.639c0.262-0.093,0.547,0.043,0.639,0.302c0.521,1.458,0.785,3.101,0.785,4.886l-0.001,0.207
					C229.506,221.582,229.283,221.801,229.01,221.801z M225.562,212.727c-0.125,0-0.25-0.047-0.348-0.141
					c-1.023-0.991-2.324-1.893-3.978-2.756c-0.245-0.128-0.339-0.43-0.212-0.675c0.128-0.245,0.431-0.339,0.675-0.212
					c1.74,0.91,3.117,1.866,4.21,2.924c0.199,0.192,0.204,0.509,0.012,0.707C225.823,212.676,225.692,212.727,225.562,212.727z
					 M216.907,207.84c-0.063,0-0.127-0.012-0.189-0.037c-1.538-0.63-3.088-1.238-4.639-1.844c-0.257-0.101-0.384-0.391-0.284-0.648
					c0.1-0.257,0.391-0.384,0.648-0.284c1.555,0.608,3.11,1.218,4.653,1.85c0.256,0.105,0.378,0.397,0.273,0.652
					C217.291,207.724,217.104,207.84,216.907,207.84z M207.611,204.154c-0.063,0-0.126-0.012-0.188-0.037
					c-1.774-0.721-3.241-1.35-4.616-1.978c-0.251-0.115-0.361-0.411-0.247-0.663c0.115-0.25,0.411-0.362,0.663-0.247
					c1.361,0.622,2.815,1.245,4.576,1.96c0.256,0.104,0.379,0.396,0.275,0.651C207.996,204.036,207.809,204.154,207.611,204.154z
					 M198.543,199.952c-0.082,0-0.164-0.02-0.24-0.062c-1.047-0.575-2.053-1.172-2.991-1.773c-0.44-0.282-0.877-0.575-1.309-0.877
					c-0.226-0.158-0.281-0.47-0.123-0.696c0.158-0.227,0.469-0.281,0.696-0.123c0.421,0.294,0.846,0.579,1.276,0.854
					c0.919,0.59,1.906,1.175,2.933,1.739c0.242,0.133,0.331,0.437,0.197,0.679C198.891,199.858,198.72,199.952,198.543,199.952z
					 M190.395,194.198c-0.122,0-0.243-0.044-0.339-0.133c-1.274-1.177-2.437-2.427-3.456-3.715
					c-0.171-0.216-0.135-0.531,0.082-0.702c0.218-0.171,0.532-0.135,0.702,0.082c0.987,1.247,2.114,2.458,3.35,3.601
					c0.203,0.188,0.215,0.504,0.028,0.707C190.664,194.144,190.529,194.198,190.395,194.198z M184.261,186.361
					c-0.18,0-0.354-0.098-0.443-0.268c-0.812-1.552-1.436-3.15-1.854-4.752c-0.07-0.267,0.09-0.541,0.357-0.61
					c0.266-0.067,0.54,0.09,0.61,0.357c0.399,1.529,0.996,3.057,1.772,4.541c0.128,0.245,0.034,0.547-0.211,0.675
					C184.418,186.343,184.339,186.361,184.261,186.361z M181.801,176.771c-0.276,0-0.5-0.224-0.5-0.5v-0.107
					c0-1.604,0.174-3.225,0.533-4.956c0.056-0.271,0.32-0.444,0.591-0.388c0.271,0.056,0.444,0.321,0.388,0.591
					c-0.345,1.663-0.513,3.218-0.513,4.752v0.107C182.301,176.547,182.078,176.771,181.801,176.771z M183.702,167.008
					c-0.056,0-0.112-0.009-0.167-0.029c-0.26-0.093-0.396-0.379-0.304-0.639c0.485-1.362,1.08-2.847,1.873-4.672
					c0.109-0.253,0.402-0.371,0.658-0.259c0.253,0.11,0.37,0.404,0.259,0.658c-0.783,1.804-1.37,3.269-1.847,4.609
					C184.1,166.881,183.908,167.008,183.702,167.008z M187.59,157.797c-0.067,0-0.136-0.014-0.202-0.042
					c-0.252-0.112-0.367-0.407-0.255-0.66c0.593-1.342,1.284-2.938,1.911-4.592c0.098-0.258,0.387-0.386,0.645-0.291
					c0.258,0.098,0.388,0.387,0.291,0.645c-0.635,1.676-1.333,3.287-1.931,4.642C187.966,157.686,187.783,157.797,187.59,157.797z
					 M191.024,148.417c-0.04,0-0.081-0.005-0.122-0.015c-0.268-0.067-0.431-0.338-0.364-0.606c0.412-1.647,0.696-3.278,0.845-4.847
					c0.026-0.274,0.266-0.481,0.545-0.45c0.275,0.026,0.477,0.27,0.45,0.545c-0.153,1.619-0.446,3.299-0.87,4.995
					C191.452,148.266,191.249,148.417,191.024,148.417z M191.896,138.504c-0.255,0-0.472-0.193-0.497-0.452
					c-0.16-1.667-0.5-3.271-1.012-4.765c-0.089-0.262,0.05-0.546,0.312-0.635c0.259-0.089,0.545,0.05,0.635,0.311
					c0.537,1.569,0.894,3.249,1.061,4.994c0.026,0.275-0.175,0.519-0.45,0.545C191.928,138.503,191.912,138.504,191.896,138.504z
					 M188.585,129.191c-0.156,0-0.31-0.073-0.408-0.21c-0.953-1.338-2.076-2.516-3.34-3.501c-0.218-0.17-0.256-0.484-0.087-0.702
					c0.169-0.218,0.483-0.256,0.702-0.087c1.34,1.045,2.53,2.293,3.539,3.71c0.16,0.225,0.108,0.537-0.117,0.697
					C188.787,129.161,188.686,129.191,188.585,129.191z"/>
			</g>
			<g>
				<g>
					<path d="M176.063,122.045c2.998-0.434,6.82-1.453,9.355-2.857l-2.68,4.289l0.684,5.01
						C181.687,126.168,178.619,123.671,176.063,122.045z"/>
				</g>
			</g>
		</g>
		<g>
			<path style="fill:#FDFFFF;" d="M232.891,64.192v27.849c0,4.066-3.326,7.392-7.392,7.392h-37.953l-19.837,12.16l3.605-12.16
				h-2.747c-4.066,0-7.392-3.326-7.392-7.392V64.192c0-4.066,3.326-7.392,7.392-7.392h56.932
				C229.564,56.8,232.891,60.126,232.891,64.192z"/>
			<path style="fill:none;stroke:#000000;stroke-miterlimit:10;" d="M231.659,62.96v27.849c0,4.066-3.326,7.392-7.392,7.392h-37.953
				l-19.837,12.16l3.605-12.16h-2.747c-4.066,0-7.392-3.326-7.392-7.392V62.96c0-4.066,3.326-7.392,7.392-7.392h56.932
				C228.332,55.568,231.659,58.894,231.659,62.96z"/>
			<path style="fill:#4CCCD3;" d="M221.873,68.884h-52.11c-1.172,0-2.131-0.959-2.131-2.131v0c0-1.172,0.959-2.131,2.131-2.131
				h52.11c1.172,0,2.131,0.959,2.131,2.131v0C224.004,67.925,223.045,68.884,221.873,68.884z"/>
			<path style="fill:#4CCCD3;" d="M221.873,78.707h-52.11c-1.172,0-2.131-0.959-2.131-2.131v0c0-1.172,0.959-2.131,2.131-2.131
				h52.11c1.172,0,2.131,0.959,2.131,2.131v0C224.004,77.747,223.045,78.707,221.873,78.707z"/>
			<path style="fill:#4CCCD3;" d="M202.371,87.417h-32.625c-1.172,0-2.131-0.959-2.131-2.131v-0.19c0-1.172,0.959-2.131,2.131-2.131
				h32.625c1.172,0,2.131,0.959,2.131,2.131v0.19C204.502,86.458,203.543,87.417,202.371,87.417z"/>
		</g>
		<g>
			<g>
				<g>
					<circle style="fill:#837AF9;" cx="239.669" cy="66.834" r="1.94"/>
					<circle style="fill:#837AF9;" cx="247.821" cy="66.834" r="1.94"/>
					<circle style="fill:#837AF9;" cx="255.973" cy="66.834" r="1.94"/>
					<circle style="fill:#837AF9;" cx="264.125" cy="66.834" r="1.94"/>
					<circle style="fill:#837AF9;" cx="272.277" cy="66.834" r="1.94"/>
				</g>
				<g>
					<circle style="fill:#837AF9;" cx="239.669" cy="75.105" r="1.94"/>
					<circle style="fill:#837AF9;" cx="247.821" cy="75.105" r="1.94"/>
					<circle style="fill:#837AF9;" cx="255.973" cy="75.105" r="1.94"/>
					<circle style="fill:#837AF9;" cx="264.125" cy="75.105" r="1.94"/>
					<circle style="fill:#837AF9;" cx="272.277" cy="75.105" r="1.94"/>
				</g>
			</g>
			<g>
				<g>
					<circle style="fill:#837AF9;" cx="239.669" cy="42.837" r="1.94"/>
					<circle style="fill:#837AF9;" cx="247.821" cy="42.837" r="1.94"/>
					<circle style="fill:#837AF9;" cx="255.973" cy="42.837" r="1.94"/>
					<circle style="fill:#837AF9;" cx="264.125" cy="42.837" r="1.94"/>
					<circle style="fill:#837AF9;" cx="272.277" cy="42.837" r="1.94"/>
				</g>
				<g>
					<circle style="fill:#837AF9;" cx="239.669" cy="51.108" r="1.94"/>
					<circle style="fill:#837AF9;" cx="247.821" cy="51.108" r="1.94"/>
					<circle style="fill:#837AF9;" cx="255.973" cy="51.108" r="1.94"/>
					<circle style="fill:#837AF9;" cx="264.125" cy="51.108" r="1.94"/>
					<circle style="fill:#837AF9;" cx="272.277" cy="51.108" r="1.94"/>
				</g>
				<g>
					<circle style="fill:#837AF9;" cx="239.669" cy="59.378" r="1.94"/>
					<circle style="fill:#837AF9;" cx="247.821" cy="59.378" r="1.94"/>
					<circle style="fill:#837AF9;" cx="255.973" cy="59.378" r="1.94"/>
					<circle style="fill:#837AF9;" cx="264.125" cy="59.378" r="1.94"/>
					<circle style="fill:#837AF9;" cx="272.277" cy="59.378" r="1.94"/>
				</g>
			</g>
		</g>
		<g>
			<path style="fill:#4CCCD3;" d="M130.365,281.521H76.437c-5.56,0-10.109-4.549-10.109-10.109l0,0
				c0-5.56,4.549-10.109,10.109-10.109h53.928c5.56,0,10.109,4.549,10.109,10.109l0,0
				C140.474,276.972,135.925,281.521,130.365,281.521z"/>
			<path style="fill:#E1FFFE;" d="M77.143,278.862L77.143,278.862c-4.126,0-7.501-3.375-7.501-7.501l0,0
				c0-4.126,3.375-7.501,7.501-7.501h0c4.126,0,7.501,3.375,7.501,7.501l0,0C84.644,275.487,81.269,278.862,77.143,278.862z"/>
			<path style="fill:#FFB3B3;" d="M130.365,303.695H76.437c-5.56,0-10.109-4.549-10.109-10.109l0,0
				c0-5.56,4.549-10.109,10.109-10.109h53.928c5.56,0,10.109,4.549,10.109,10.109l0,0
				C140.474,299.146,135.925,303.695,130.365,303.695z"/>
			<path style="fill:#E1FFFE;" d="M77.143,301.036L77.143,301.036c-4.126,0-7.501-3.375-7.501-7.501l0,0
				c0-4.126,3.375-7.501,7.501-7.501h0c4.126,0,7.501,3.375,7.501,7.501l0,0C84.644,297.661,81.269,301.036,77.143,301.036z"/>
			<path style="fill:#837AF9;" d="M132.304,326.777H78.377c-5.56,0-10.109-4.549-10.109-10.109v0c0-5.56,4.549-10.109,10.109-10.109
				h53.928c5.56,0,10.109,4.549,10.109,10.109v0C142.414,322.228,137.864,326.777,132.304,326.777z"/>
			<path style="fill:#E1FFFE;" d="M79.083,324.119L79.083,324.119c-4.126,0-7.501-3.375-7.501-7.501v0
				c0-4.126,3.375-7.501,7.501-7.501h0c4.126,0,7.501,3.375,7.501,7.501v0C86.584,320.743,83.209,324.119,79.083,324.119z"/>
		</g>
		<g>
			<g>
				<g>
					<circle cx="51.964" cy="255.782" r="1.94"/>
					<circle cx="60.116" cy="255.782" r="1.94"/>
					<circle cx="68.268" cy="255.782" r="1.94"/>
					<circle cx="76.419" cy="255.782" r="1.94"/>
					<circle cx="84.571" cy="255.782" r="1.94"/>
				</g>
				<g>
					<circle cx="51.964" cy="264.053" r="1.94"/>
					<circle cx="60.116" cy="264.053" r="1.94"/>
					<circle cx="68.268" cy="264.053" r="1.94"/>
					<circle cx="76.419" cy="264.053" r="1.94"/>
					<circle cx="84.571" cy="264.053" r="1.94"/>
				</g>
			</g>
			<g>
				<g>
					<circle cx="51.964" cy="231.784" r="1.94"/>
					<circle cx="60.116" cy="231.784" r="1.94"/>
					<circle cx="68.268" cy="231.784" r="1.94"/>
					<circle cx="76.419" cy="231.784" r="1.94"/>
					<circle cx="84.571" cy="231.784" r="1.94"/>
				</g>
				<g>
					<circle cx="51.964" cy="240.055" r="1.94"/>
					<circle cx="60.116" cy="240.055" r="1.94"/>
					<circle cx="68.268" cy="240.055" r="1.94"/>
					<circle cx="76.419" cy="240.055" r="1.94"/>
					<circle cx="84.571" cy="240.055" r="1.94"/>
				</g>
				<g>
					<circle cx="51.964" cy="248.326" r="1.94"/>
					<circle cx="60.116" cy="248.326" r="1.94"/>
					<circle cx="68.268" cy="248.326" r="1.94"/>
					<circle cx="76.419" cy="248.326" r="1.94"/>
					<circle cx="84.571" cy="248.326" r="1.94"/>
				</g>
			</g>
		</g>
	</g>
	<g>
		<path d="M435.38,166.18c-0.14,0.18-7.283-3.566-14.86,0.76c-4.224,2.412-8.58,5.71-13.73,4.74c-3.71-0.7-6.65-3.24-9.86-5.02
			c-1.73-0.96-3.61-1.74-5.61-1.73c-2.3,0.01-4.5,0.88-6.46,2.02c-3.88,2.26-7.07,5.52-11.12,7.53c-3.75,1.86-7.57,1.88-11.43,0.37
			c-3.41-1.33-6.67-3.68-10.4-4.02c-4.12-0.38-6.81,2.87-9.88,5.04c-1.57,1.1-3.3,1.94-5.22,2.13c-2.36,0.23-4.68-0.39-6.91-1.06
			c-2.29-0.69-4.7-1.53-7.12-1.26c-1.79,0.19-6.61,3.64-6.6,3.18c-2.46-3.48-3.3-8.03-2.2-12.16c0.52-1.93,1.42-3.65,2.63-5.23
			c1.25-1.63,2.8-3.14,3.64-5.05c1.03-2.35,0.08-4.62-0.81-6.84c-0.74-1.87-1.29-3.77-1.5-5.77c-0.73-7.03,2.29-14.3,7.82-18.68
			c-5.9-3.34-10.45-9.01-12.18-15.61c-0.71-2.71-0.93-6.23,1.79-7.94c2.73-1.73,6.15-0.15,9.02,0.28c8.07,1.2,15.59-3.25,22.38-6.95
			c6.54-3.57,13.81-7.08,21.47-5.88c5,0.77,9.69,3.99,11.61,8.65c3.18-0.93,6.51-1.39,9.79-0.76c3.64,0.69,7.2,2.71,9.11,5.97
			c1.98,3.4,1.95,7.41,1.78,11.22c-0.16,3.61-0.45,7.64,1.35,10.92c1.99,3.61,6.18,4.68,9.93,5.41c3.72,0.72,7.65,1.39,10.6,3.97
			c1.2,1.06,2.21,2.41,2.69,3.95c0.56,1.79,0.38,3.64,0.28,5.47c-0.11,1.95-0.04,3.94,1.47,5.36c1.13,1.08,2.63,1.68,4.02,2.35
			c2.77,1.36,5.08,3.18,5.96,6.27C437.66,160.69,437.18,163.77,435.38,166.18z"/>
		<path style="fill:#FFB3B3;" d="M390.71,196.95c-6.68,12.09-28.36,29.46-28.36,29.46c-9.59-14.45-11.4-32.24-11.4-32.24l0.53-4.18
			l18.54-24.84c1.19-1.43,2.35-2.98,3.45-4.62l-3.45,4.62c-5.16,6.22-11.07,10.44-16.96,12.22c-8.53,2.6-17.02,0.1-23.1-8.84
			c-0.24-0.34-0.46-0.69-0.69-1.05c-7.61-12.18-6.11-32.05-4.4-43.37c0.79-5.22,1.62-8.62,1.62-8.62
			c11.95,6.4,23.49,1.39,32.53,2.51c9.03,1.11,13.06,11.95,13.06,11.95s1.95-10.56,13.07-6.67c7,2.45,3.2,12.07-0.58,18.85
			c-2.22,3.99-4.43,7-4.43,7L390.71,196.95z"/>
		<path style="fill:#837AF9;" d="M404.33,272.58l-5.01,43.62l-8.61-0.42l-78.09-3.76l-5.31-0.26l0.32-2.01l4.68-29.13
			c-4.31-5.28-6.39-11.95-6.39-11.95c-0.27-1.33-0.22-2.9,0.11-4.67l-12.62-6.73c0,0,12.67-37.17,17.3-51.25
			c1.49-3.16,2.95-5.8,4.35-7.65c1.19-1.59,2.32-2.59,3.37-2.81c9.03-1.95,32.52-1.39,32.52-1.39s1.81,17.79,11.4,32.24
			c0,0,21.68-17.37,28.36-29.46c0,0,6.54,2.09,14.05,5.65c1.91,0.9,3.89,1.9,5.83,2.98c6.67,3.7,13.03,8.38,15.42,13.61
			C430.91,229.92,421.41,253.9,404.33,272.58z"/>
		<path d="M334.514,204.131c-1.205-1.39-2.409-2.78-3.614-4.17c-0.351-0.405-0.726-0.711-1.271-0.811
			c-0.488-0.09-1.118,0.025-1.518,0.335c-0.401,0.312-0.74,0.753-0.811,1.271c-0.069,0.503-0.012,1.117,0.335,1.518
			c1.205,1.39,2.409,2.78,3.614,4.17c0.351,0.405,0.726,0.711,1.271,0.811c0.488,0.09,1.118-0.025,1.518-0.335
			c0.401-0.312,0.74-0.753,0.811-1.271C334.919,205.146,334.861,204.532,334.514,204.131z"/>
		<path d="M346.192,207.466c-0.278-0.392-0.786-0.745-1.271-0.811c-1.078-0.148-2.123,0.505-2.329,1.606
			c-0.278,1.483-0.556,2.965-0.834,4.448c-0.095,0.509,0.036,1.096,0.335,1.518c0.278,0.392,0.786,0.745,1.271,0.811
			c1.078,0.148,2.123-0.505,2.329-1.606c0.278-1.483,0.556-2.965,0.834-4.448C346.623,208.474,346.491,207.887,346.192,207.466z"/>
		<path d="M335.004,213.761c-0.376-0.315-0.966-0.526-1.46-0.46c-0.513,0.068-1.033,0.284-1.358,0.707
			c-0.339,0.441-0.46,0.903-0.46,1.46v4.726c0,0.486,0.347,1.056,0.707,1.358c0.376,0.315,0.966,0.526,1.46,0.46
			c0.513-0.068,1.033-0.284,1.358-0.707c0.339-0.441,0.46-0.903,0.46-1.46v-4.726C335.711,214.633,335.364,214.063,335.004,213.761z
			"/>
		<path d="M320.977,223.459c-0.371-1.668-0.741-3.336-1.112-5.004c-0.014-0.275-0.093-0.526-0.239-0.753
			c-0.102-0.24-0.258-0.442-0.468-0.605c-0.376-0.315-0.966-0.526-1.46-0.46c-0.513,0.068-1.033,0.284-1.358,0.707
			c-0.299,0.388-0.572,0.957-0.46,1.46c0.371,1.668,0.741,3.336,1.112,5.004c0.014,0.275,0.093,0.526,0.239,0.753
			c0.102,0.24,0.258,0.442,0.468,0.605c0.376,0.315,0.966,0.526,1.46,0.46c0.513-0.068,1.033-0.284,1.358-0.707
			C320.815,224.53,321.089,223.962,320.977,223.459z"/>
		<path d="M331.16,232.149c-0.424-1.002-1.52-1.563-2.573-1.177c-2.036,0.748-4.073,1.495-6.109,2.243
			c-0.982,0.36-1.597,1.581-1.177,2.573c0.424,1.002,1.52,1.563,2.573,1.177c2.036-0.748,4.073-1.495,6.109-2.243
			C330.965,234.362,331.58,233.141,331.16,232.149z"/>
		<path d="M321.166,202.414c-0.41-0.315-0.931-0.531-1.46-0.46c-0.521,0.069-1.019,0.289-1.358,0.707
			c-1.121,1.382-2.243,2.765-3.364,4.147c-0.327,0.403-0.506,0.94-0.46,1.46c0.043,0.489,0.311,1.053,0.707,1.358
			c0.41,0.315,0.931,0.53,1.46,0.46c0.521-0.069,1.019-0.289,1.358-0.707c1.121-1.382,2.243-2.765,3.364-4.147
			c0.327-0.403,0.506-0.94,0.46-1.46C321.83,203.283,321.562,202.719,321.166,202.414z"/>
		<path d="M310.368,231.379c-0.278-0.392-0.786-0.745-1.271-0.811c-1.07-0.147-2.132,0.504-2.329,1.606
			c-0.281,1.575-0.563,3.149-0.844,4.724c-0.092,0.512,0.034,1.092,0.335,1.518c0.278,0.392,0.786,0.745,1.271,0.811
			c1.07,0.147,2.132-0.504,2.329-1.606c0.281-1.575,0.563-3.149,0.844-4.724C310.794,232.385,310.669,231.805,310.368,231.379z"/>
		<path d="M320.422,249.943c-0.152-1.145-1.043-1.828-2.167-1.818c-2.131,0.02-4.262,0.039-6.393,0.059
			c-1.049,0.01-1.953,1.153-1.818,2.167c0.152,1.145,1.043,1.828,2.167,1.818c2.131-0.02,4.262-0.04,6.393-0.059
			C319.652,252.099,320.556,250.956,320.422,249.943z"/>
		<path d="M303.993,254.877c-0.281-1.575-0.563-3.149-0.844-4.724c-0.095-0.534-0.279-0.998-0.707-1.358
			c-0.376-0.315-0.966-0.526-1.46-0.46c-0.513,0.068-1.033,0.284-1.358,0.707c-0.307,0.399-0.552,0.944-0.46,1.46
			c0.281,1.575,0.563,3.149,0.844,4.724c0.095,0.534,0.279,0.998,0.707,1.358c0.376,0.315,0.966,0.526,1.46,0.46
			c0.513-0.068,1.033-0.284,1.358-0.707C303.84,255.938,304.085,255.393,303.993,254.877z"/>
		<path d="M322.128,263.348c-2.13-0.197-4.26-0.394-6.391-0.59c-0.546-0.05-1.057,0.008-1.518,0.335
			c-0.392,0.278-0.745,0.786-0.811,1.271c-0.137,0.994,0.492,2.226,1.606,2.329c2.13,0.197,4.26,0.394,6.391,0.59
			c0.546,0.05,1.057-0.008,1.518-0.335c0.392-0.278,0.745-0.786,0.811-1.271C323.87,264.683,323.242,263.451,322.128,263.348z"/>
		<path d="M334.712,246.12c-0.278-0.392-0.786-0.745-1.271-0.811c-0.52-0.072-1.091,0.004-1.518,0.335
			c-0.385,0.299-0.775,0.763-0.811,1.271l-0.396,5.551c-0.04,0.554,0.002,1.048,0.335,1.518c0.278,0.392,0.786,0.745,1.271,0.811
			c0.52,0.072,1.091-0.004,1.518-0.335c0.385-0.299,0.775-0.763,0.811-1.271l0.396-5.551
			C335.087,247.084,335.045,246.59,334.712,246.12z"/>
		<path d="M351.016,236.265l-7.505-1.117c-1.033-0.154-2.179,0.511-2.329,1.606c-0.144,1.044,0.499,2.164,1.606,2.329l7.505,1.117
			c1.033,0.154,2.179-0.511,2.329-1.606C352.765,237.55,352.123,236.43,351.016,236.265z"/>
		<path d="M352.515,220.709c-0.41-0.315-0.931-0.531-1.46-0.46c-0.174,0.039-0.349,0.078-0.523,0.118
			c-0.329,0.124-0.607,0.321-0.834,0.589c-1.483,1.482-2.966,2.965-4.449,4.447c-0.344,0.344-0.501,0.994-0.46,1.46
			c0.043,0.489,0.311,1.053,0.707,1.358c0.41,0.315,0.931,0.53,1.46,0.46c0.174-0.039,0.349-0.078,0.523-0.117
			c0.329-0.124,0.607-0.321,0.834-0.589l4.449-4.447c0.344-0.344,0.501-0.994,0.46-1.46
			C353.179,221.578,352.911,221.014,352.515,220.709z"/>
		<path d="M365.566,235.408c-0.046-1.047-1.127-1.956-2.167-1.818c-1.114,0.148-1.868,1.046-1.818,2.167
			c0.074,1.669,0.147,3.338,0.221,5.006c0.046,1.047,1.127,1.956,2.167,1.818c1.114-0.148,1.868-1.045,1.818-2.167
			C365.713,238.745,365.639,237.076,365.566,235.408z"/>
		<path d="M382.691,228.737c-0.146-1.099-1.047-1.886-2.167-1.818c-2.689,0.163-5.377,0.327-8.066,0.49
			c-1.045,0.064-1.958,1.115-1.818,2.167c0.146,1.099,1.047,1.886,2.167,1.818c2.689-0.163,5.377-0.327,8.066-0.49
			C381.918,230.84,382.831,229.789,382.691,228.737z"/>
		<path d="M388.115,214.032c-0.168-0.451-0.569-0.921-1.02-1.111c-0.484-0.204-1.055-0.277-1.553-0.067
			c-0.465,0.197-0.915,0.537-1.111,1.02c-0.562,1.387-1.124,2.775-1.686,4.162c-0.202,0.498-0.258,1.038-0.067,1.553
			c0.168,0.451,0.569,0.921,1.02,1.111c0.484,0.204,1.055,0.277,1.553,0.067c0.465-0.197,0.915-0.537,1.111-1.02
			c0.562-1.387,1.124-2.775,1.686-4.162C388.25,215.087,388.306,214.547,388.115,214.032z"/>
		<path d="M400.549,206.382c-1.088-0.15-2.11,0.508-2.329,1.606c-0.37,1.853-0.741,3.707-1.111,5.56
			c-0.205,1.026,0.548,2.184,1.606,2.329c1.088,0.15,2.11-0.508,2.329-1.606c0.37-1.853,0.741-3.707,1.111-5.56
			C402.36,207.686,401.608,206.528,400.549,206.382z"/>
		<path d="M417.971,216.265c-1.946-0.834-3.892-1.668-5.838-2.502c-0.961-0.412-2.234-0.067-2.663,0.953
			c-0.408,0.969-0.074,2.223,0.953,2.663c1.946,0.834,3.892,1.668,5.838,2.502c0.961,0.412,2.234,0.067,2.663-0.953
			C419.332,217.96,418.998,216.705,417.971,216.265z"/>
		<path d="M407.748,220.832c-1.14-0.157-2.046,0.521-2.329,1.606l-1.668,6.394c-0.264,1.014,0.59,2.189,1.606,2.329
			c1.14,0.157,2.046-0.521,2.329-1.606l1.668-6.394C409.618,222.147,408.764,220.971,407.748,220.832z"/>
		<path d="M391.506,227.26c-1.103-0.152-2.091,0.511-2.329,1.606c-0.482,2.22-0.964,4.44-1.446,6.66
			c-0.222,1.023,0.56,2.185,1.606,2.329c1.103,0.152,2.091-0.511,2.329-1.606c0.482-2.22,0.964-4.44,1.446-6.66
			C393.334,228.567,392.552,227.404,391.506,227.26z"/>
		<path d="M409.875,244.155c-2.224-0.835-4.447-1.67-6.671-2.505c-0.511-0.192-1.025-0.263-1.553-0.067
			c-0.451,0.168-0.921,0.569-1.111,1.02c-0.392,0.93-0.092,2.271,0.953,2.663c2.224,0.835,4.447,1.67,6.671,2.505
			c0.511,0.192,1.025,0.263,1.553,0.067c0.451-0.168,0.921-0.569,1.111-1.02C411.22,245.888,410.921,244.548,409.875,244.155z"/>
		<path d="M420.578,234.573c-0.077-1.044-1.105-1.959-2.167-1.818c-1.088,0.144-1.9,1.048-1.818,2.167
			c0.17,2.318,0.34,4.635,0.51,6.953c0.077,1.044,1.105,1.959,2.167,1.818c1.088-0.144,1.9-1.048,1.818-2.167
			C420.918,239.208,420.748,236.89,420.578,234.573z"/>
		<path d="M408.436,253.541c-0.41-0.315-0.931-0.53-1.46-0.46c-0.488,0.065-1.077,0.273-1.358,0.707
			c-1.09,1.682-2.181,3.364-3.271,5.046c-0.301,0.465-0.511,0.883-0.46,1.46c0.043,0.489,0.311,1.053,0.707,1.358
			c0.41,0.315,0.931,0.53,1.46,0.46c0.488-0.065,1.077-0.273,1.358-0.707c1.09-1.682,2.181-3.364,3.271-5.046
			c0.301-0.465,0.511-0.883,0.46-1.46C409.1,254.411,408.832,253.846,408.436,253.541z"/>
		<path d="M394.56,250.01c-0.41-0.315-0.931-0.53-1.46-0.46c-0.518,0.069-1.025,0.287-1.358,0.707c-1.266,1.6-2.532,3.2-3.798,4.8
			c-0.324,0.41-0.506,0.934-0.46,1.46c0.043,0.489,0.311,1.053,0.707,1.358c0.41,0.315,0.931,0.531,1.46,0.46
			c0.518-0.069,1.025-0.287,1.358-0.707c1.266-1.6,2.532-3.2,3.798-4.8c0.324-0.41,0.506-0.934,0.46-1.46
			C395.224,250.879,394.955,250.315,394.56,250.01z"/>
		<path d="M377.436,245.294c-1.024-0.141-2.189,0.496-2.329,1.606c-0.257,2.041-0.514,4.082-0.771,6.124
			c-0.13,1.035,0.495,2.176,1.606,2.329c1.024,0.141,2.189-0.496,2.329-1.606c0.257-2.041,0.514-4.082,0.771-6.124
			C379.172,246.587,378.547,245.446,377.436,245.294z"/>
		<path d="M385.427,266.064c-1.671-0.829-3.341-1.657-5.012-2.486c-0.938-0.465-2.249-0.029-2.663,0.953
			c-0.428,1.015-0.048,2.167,0.953,2.663c1.671,0.829,3.341,1.657,5.012,2.486c0.938,0.465,2.249,0.029,2.663-0.953
			C386.808,267.713,386.428,266.561,385.427,266.064z"/>
		<path d="M395.476,271.83c-0.062-1.045-1.116-1.958-2.167-1.818c-1.1,0.146-1.884,1.047-1.818,2.167
			c0.093,1.575,0.186,3.151,0.279,4.726c0.062,1.045,1.116,1.958,2.167,1.818c1.1-0.146,1.884-1.047,1.818-2.167
			C395.662,274.98,395.569,273.405,395.476,271.83z"/>
		<path d="M371.578,261.776c-0.41-0.315-0.931-0.531-1.46-0.46c-0.487,0.065-1.078,0.273-1.358,0.707l-3.59,5.575
			c-0.301,0.467-0.511,0.881-0.46,1.46c0.043,0.489,0.311,1.053,0.707,1.358c0.41,0.315,0.931,0.531,1.46,0.46
			c0.487-0.065,1.079-0.273,1.358-0.707l3.59-5.575c0.301-0.467,0.511-0.881,0.46-1.46
			C372.242,262.646,371.974,262.081,371.578,261.776z"/>
		<path d="M361.023,248.507c-0.376-0.315-0.966-0.526-1.46-0.46c-0.513,0.068-1.033,0.284-1.358,0.707
			c-0.345,0.448-0.442,0.899-0.46,1.46c-0.073,2.225-0.145,4.449-0.218,6.674c-0.016,0.476,0.359,1.066,0.707,1.358
			c0.376,0.315,0.966,0.526,1.46,0.46c0.513-0.068,1.033-0.284,1.358-0.707c0.344-0.448,0.442-0.899,0.46-1.46
			c0.073-2.225,0.145-4.449,0.218-6.674C361.745,249.388,361.371,248.799,361.023,248.507z"/>
		<path d="M348.957,262.519c-1.391-2.038-2.781-4.076-4.172-6.114c-0.59-0.865-1.945-1.131-2.789-0.476
			c-0.868,0.674-1.108,1.863-0.476,2.789c1.391,2.038,2.781,4.076,4.172,6.114c0.59,0.865,1.945,1.13,2.789,0.476
			C349.348,264.634,349.588,263.444,348.957,262.519z"/>
		<path d="M340.875,271.028c-0.447-1.057-1.495-1.492-2.573-1.177c-2.224,0.649-4.448,1.297-6.672,1.946
			c-1.006,0.293-1.577,1.628-1.177,2.573c0.447,1.057,1.495,1.492,2.573,1.177c2.224-0.649,4.448-1.297,6.672-1.946
			C340.704,273.307,341.275,271.973,340.875,271.028z"/>
		<path d="M356.689,278.821c-0.746-2.593-1.492-5.186-2.238-7.78c-0.29-1.007-1.63-1.576-2.573-1.177
			c-1.06,0.449-1.488,1.493-1.177,2.573c0.746,2.593,1.492,5.186,2.238,7.78c0.29,1.007,1.63,1.576,2.573,1.177
			C356.573,280.945,357,279.9,356.689,278.821z"/>
		<path d="M338.34,281.313c-0.376-0.315-0.966-0.526-1.46-0.46c-0.513,0.068-1.033,0.284-1.358,0.707
			c-0.339,0.441-0.46,0.903-0.46,1.46v5.838c0,0.486,0.347,1.056,0.707,1.358c0.376,0.315,0.966,0.526,1.46,0.46
			c0.513-0.068,1.033-0.284,1.358-0.707c0.339-0.441,0.46-0.903,0.46-1.46v-5.838C339.046,282.185,338.7,281.615,338.34,281.313z"/>
		<path d="M324.82,280.748c-1.018-0.429-2.163-0.047-2.663,0.953l-3.061,6.114c-0.469,0.937-0.027,2.25,0.953,2.663
			c1.018,0.429,2.163,0.047,2.663-0.953c1.02-2.038,2.041-4.076,3.061-6.114C326.243,282.474,325.8,281.161,324.82,280.748z"/>
		<path d="M331.854,298.956l-7.225-1.129c-1.032-0.161-2.179,0.517-2.329,1.606c-0.144,1.05,0.5,2.156,1.606,2.329l7.225,1.129
			c1.032,0.161,2.179-0.517,2.329-1.606C333.605,300.235,332.96,299.129,331.854,298.956z"/>
		<path d="M347.668,292.827c-1.027-0.141-2.185,0.496-2.329,1.606c-0.264,2.04-0.529,4.081-0.793,6.121
			c-0.134,1.035,0.497,2.177,1.606,2.329c1.027,0.141,2.185-0.496,2.329-1.606c0.264-2.04,0.529-4.081,0.793-6.121
			C349.408,294.121,348.777,292.98,347.668,292.827z"/>
		<path d="M364.363,292.128c-2.039-0.275-4.078-0.551-6.117-0.826c-1.034-0.14-2.177,0.501-2.329,1.606
			c-0.142,1.032,0.497,2.179,1.606,2.329c2.039,0.275,4.078,0.551,6.117,0.826c1.034,0.14,2.177-0.501,2.329-1.606
			C366.111,293.425,365.472,292.277,364.363,292.128z"/>
		<path d="M376.435,283.543c-0.556-2.224-1.113-4.448-1.669-6.672c-0.114-0.455-0.614-0.919-1.02-1.111
			c-0.449-0.213-1.088-0.263-1.553-0.067c-0.468,0.198-0.907,0.538-1.111,1.02c-0.222,0.526-0.204,1.002-0.067,1.553
			c0.556,2.224,1.113,4.448,1.669,6.672c0.114,0.455,0.614,0.919,1.02,1.111c0.449,0.213,1.088,0.263,1.553,0.067
			c0.468-0.198,0.907-0.538,1.111-1.02C376.591,284.57,376.573,284.094,376.435,283.543z"/>
		<path d="M388.565,285.341c-2.039-0.183-4.078-0.365-6.117-0.548c-0.547-0.049-1.055,0.007-1.518,0.335
			c-0.392,0.278-0.745,0.786-0.811,1.271c-0.136,0.992,0.492,2.229,1.606,2.329c2.039,0.183,4.078,0.365,6.117,0.548
			c0.547,0.049,1.055-0.007,1.518-0.335c0.392-0.278,0.745-0.786,0.811-1.271C390.307,286.679,389.679,285.441,388.565,285.341z"/>
		<path d="M396.27,299.911c-0.192-1.76-0.385-3.52-0.577-5.28c-0.114-1.039-1.079-1.963-2.167-1.818
			c-1.056,0.14-1.94,1.052-1.818,2.167c0.192,1.76,0.385,3.52,0.577,5.28c0.114,1.039,1.079,1.963,2.167,1.818
			C395.508,301.938,396.391,301.026,396.27,299.911z"/>
		<path d="M382.296,299.661c-0.168-0.451-0.569-0.921-1.02-1.111c-1.018-0.429-2.163-0.047-2.663,0.953
			c-0.741,1.483-1.483,2.965-2.224,4.448c-0.229,0.458-0.243,1.077-0.067,1.553c0.168,0.451,0.569,0.921,1.02,1.111
			c1.018,0.429,2.163,0.047,2.663-0.953c0.741-1.483,1.483-2.965,2.224-4.448C382.458,300.756,382.473,300.137,382.296,299.661z"/>
		<path d="M365.461,305.63c-1.724-1.608-3.448-3.216-5.172-4.824c-0.767-0.716-2.183-0.579-2.818,0.247
			c-0.689,0.896-0.572,2.054,0.247,2.818c1.724,1.608,3.448,3.216,5.172,4.824c0.767,0.716,2.183,0.579,2.818-0.247
			C366.396,307.551,366.279,306.393,365.461,305.63z"/>
		<path style="fill:#4CCCD3;" d="M365.27,436.3V500h-52.65c-3.04-17.29-3.07-63.5-2.32-105.78l40.65,6.22L365.27,436.3z"/>
		<path style="fill:#4CCCD3;" d="M365.27,436.3l-14.32-35.86l-40.65-6.22c0.37-21.22,0.94-41.44,1.42-56.52
			c42.21,8.15,86.89,0,86.89,0c10.48,12.89,24.43,35.34,23.51,62.74L454.23,500h-63.52L365.27,436.3z"/>
		<path style="fill:#FFFFFF;" d="M353.83,155.45c0,0,4.49,7.49-3.9,11.57c-8.38,4.07-12.6-3.34-12.6-3.34L353.83,155.45z"/>
		<path style="fill:#EF7B7B;" d="M336.87,144.03l2.96,10.94c-6.34,1.71-12.09-1.48-8.8-3.89S336.87,144.03,336.87,144.03z"/>
		<path style="fill:#EF7B7B;" d="M359.99,141.72c2.73,0,4.95,2.22,4.95,4.96c0,2.73-2.22,4.95-4.95,4.95
			c-2.74,0-4.96-2.22-4.96-4.95C355.03,143.94,357.25,141.72,359.99,141.72z"/>
		<path d="M222.38,260.25l15.29,18.43l-1.56,1.01c-0.11-0.01-0.21-0.02-0.32-0.03c-1.81-0.12-3.64,0.16-5.32,0.82
			c0.56-1.93,0.99-4.19-0.22-5.79c-0.53-0.7-1.31-1.17-2.14-1.46c-1.92-0.67-4.07-0.42-5.96,0.33c-1.24,0.48-2.38,1.17-3.47,1.94
			c0,0,0,0-0.01-0.01c0.86-0.64,1.78-1.19,2.75-1.65l-0.01-0.03l-11.29-14.5l-9.7-12.46l6.67-5.02L222.38,260.25z"/>
		<path style="fill:#FFB3B3;" d="M390.71,315.78v0.01l-3.28,10.01c0,0,4.98,4.28,11.18,11.9c0,0-44.68,8.15-86.89,0
			c0.49-15.3,0.88-25.3,0.9-25.68L390.71,315.78z"/>
		<path style="fill:#EF7B7B;" d="M385.3,128.92c0.03,1.29-1.96,1.47-1.99,0.18c-0.02-0.68-0.68-1.07-1.32-1.05
			c-0.9,0.02-1.63,0.81-2.13,1.48c-1.26,1.69-1.93,3.87-2.08,5.96c-0.07,1.01-0.05,2.15,0.28,3.12c0.25,0.76,0.9,1.66,1.81,1.46
			c1.28-0.28,2.83-4.17,1.11-4.43c-1.28-0.19-0.91-2.15,0.36-1.97c3.34,0.5,2.5,5.17,0.99,7.04c-1.66,2.07-4.59,1.62-5.81-0.64
			c-1.19-2.22-0.9-5.33-0.21-7.67c0.67-2.27,1.92-4.94,4.19-6C382.42,125.5,385.25,126.57,385.3,128.92z"/>
		<path d="M370.02,165.15l-18.54,24.84l1.58-12.62C358.95,175.59,364.86,171.37,370.02,165.15z"/>
		<polygon points="361.4,256.05 360.35,268.95 354.88,262.28 		"/>
		<path d="M348.96,133.29c1.89,0,3.43,1.88,3.43,4.21s-1.54,4.22-3.43,4.22c-1.89,0-3.43-1.89-3.43-4.22
			S347.07,133.29,348.96,133.29z"/>
		<path d="M324.61,225.23l9.92-10.18c-0.31,0.39-4,5.13-8.65,11.74L324.61,225.23z"/>
		<path d="M330.08,133.29c1.89,0,3.43,1.88,3.43,4.21s-1.54,4.22-3.43,4.22c-1.89,0-3.43-1.89-3.43-4.22
			S328.19,133.29,330.08,133.29z"/>
		<path style="fill:#FFB3B3;" d="M312.31,280.62l-4.68,29.13c-4.82,0.97-57.63-18.56-57.63-18.56c-6.24,2.41-15.62-0.21-19.27-1.41
			c2.36-1.07,4.49-2.62,6.23-4.53c0.62-0.7,1.21-1.46,1.46-2.36c0.24-0.9,0.07-1.97-0.63-2.58c-0.46-0.39-1.07-0.55-1.68-0.62
			l1.56-1.01l-15.29-18.43h9.59c0,0-6.81-18.13-3.05-18.42c3.75-0.28,6.25,12.38,16.4,17.32c10.14,4.93,10.28,13.69,10.28,13.69
			l37.81,5.84l3.52-19.53l9.1,4.85c-0.33,1.77-0.38,3.34-0.11,4.67C305.92,268.67,308,275.34,312.31,280.62z"/>
		<path style="fill:#FFB3B3;" d="M387.43,275.26c0,0-24.51,25.03-35.29,22.53c-6.69-1.55-25.87-29.29-39.46-50.13
			c-1.38-2.12-2.71-4.17-3.96-6.11c-2.89-4.51-5.37-8.44-7.21-11.36c-2.12-3.4-3.37-5.44-3.37-5.44s-23.5-17.2-23.36-19.09
			c0.14-1.9,1.39-4.54,1.39-4.54s-2.64-6.12,2.78-6.95c0,0-2.08-6.24,2.23-8.41c0,0-16.47-25.37-14.39-28.15
			c2.09-2.78,25.92,25.78,25.92,25.78s6.57-0.07,9.94,7.65c1.73,3.95,5.15,10.01,8.06,14.98c2.77,4.71,5.1,8.44,5.1,8.44l8.8,10.77
			l1.27,1.56l20.36,24.92l8.64,10.57l5.47,6.67l1.05-12.9l5.12-4.9L387.43,275.26z"/>
		<path d="M308.72,241.55c1.25,1.94,2.58,3.99,3.96,6.11c-3.28,6-5.84,11.8-6.65,16.34l-9.1-4.85l-3.52-1.88L308.72,241.55z"/>
		<path style="fill:#FFB3B3;" d="M236.11,279.69c0.61,0.07,1.22,0.23,1.68,0.62c0.7,0.61,0.87,1.68,0.63,2.58
			c-0.25,0.9-0.84,1.66-1.46,2.36c-1.74,1.91-3.87,3.46-6.23,4.53c-0.56,0.27-1.14,0.5-1.73,0.7c-2.43,0.84-5.57,0.98-7.15-1.06
			c-1.38-1.79-0.87-4.38,0.05-6.44c-1.42-0.09-2.85-0.18-4.27-0.26c-0.91-0.06-1.93-0.17-2.5-0.88c-0.83-1.04-0.13-2.59,0.71-3.63
			c0.7-0.87,1.5-1.66,2.37-2.37c0.05-0.03,0.1-0.07,0.16-0.12c0.1-0.08,0.2-0.15,0.31-0.22c1.09-0.77,2.23-1.46,3.47-1.94
			c1.89-0.75,4.04-1,5.96-0.33c0.83,0.29,1.61,0.76,2.14,1.46c1.21,1.6,0.78,3.86,0.22,5.79c1.68-0.66,3.51-0.94,5.32-0.82
			C235.9,279.67,236,279.68,236.11,279.69z"/>
		<polygon points="366.52,251.15 390.71,225.23 351.48,258.121 354.88,262.28 		"/>
		<polygon points="310.3,394.22 346.24,409.888 365.27,436.3 350.95,400.44 		"/>
		<g>
			<path d="M353.882,128.232c-2.406-1.313-5.337-1.803-8.035-1.308c-0.535,0.098-0.997,0.277-1.358,0.707
				c-0.315,0.376-0.526,0.966-0.46,1.46c0.132,0.992,1.065,2.02,2.167,1.818c0.709-0.13,1.424-0.176,2.143-0.164
				c0.69,0.052,1.374,0.154,2.042,0.337c0.061,0.017,0.125,0.035,0.188,0.054c-0.111-0.036-0.233-0.084-0.047-0.018
				c0.019,0.007,0.038,0.015,0.057,0.022c0.031,0.009,0.061,0.021,0.092,0.026c-0.018-0.003-0.052-0.013-0.086-0.024
				c0.168,0.06,0.336,0.12,0.502,0.188c0.373,0.152,0.734,0.327,1.087,0.52c0.921,0.502,2.261,0.003,2.663-0.953
				C355.277,129.848,354.865,128.768,353.882,128.232z"/>
			<path d="M350.567,131.135c0.006,0.002,0.01,0.003,0.016,0.005c-0.002-0.001-0.004-0.001-0.006-0.002
				C350.574,131.137,350.57,131.136,350.567,131.135z"/>
		</g>
		<path d="M331.373,126.985c-2.783-0.421-5.713,0.273-7.956,1.995c-0.829,0.636-1.156,1.912-0.476,2.789
			c0.643,0.829,1.901,1.158,2.789,0.476c0.326-0.25,0.675-0.46,1.032-0.662c0.5-0.238,1.019-0.427,1.554-0.568
			c0.589-0.111,1.184-0.162,1.783-0.152c0.184,0.017,0.368,0.03,0.551,0.058c1.033,0.156,2.179-0.513,2.329-1.606
			C333.123,128.269,332.48,127.153,331.373,126.985z"/>
	</g>
</g>
</svg>
